<?xml version="1.0" encoding="iso-8859-1"?>
<!-- Generator: Adobe Illustrator 19.0.0, SVG Export Plug-In . SVG Version: 6.00 Build 0)  -->
<svg version="1.1" id="Layer_1" xmlns="http://www.w3.org/2000/svg" xmlns:xlink="http://www.w3.org/1999/xlink" x="0px" y="0px"
	 viewBox="0 0 512 512" style="enable-background:new 0 0 512 512;" xml:space="preserve">
<path style="fill:#E8E8E8;" d="M256,0C114.608,0,0,114.608,0,256c0,141.376,114.608,256,256,256s256-114.624,256-256
	C512,114.608,397.392,0,256,0z"/>
<g style="opacity:0.2;">
	<polygon points="376.464,220.784 305.216,293.808 305.216,117.568 238.768,117.568 238.768,293.808 167.536,220.784 
		120.112,267.296 272,423.008 423.888,267.296 	"/>
</g>
<polygon style="fill:#FFFFFF;" points="360.464,204.784 289.216,277.808 289.216,101.568 222.768,101.568 222.768,277.808 
	151.536,204.784 104.112,251.296 256,407.008 407.888,251.296 "/>
<g>
</g>
<g>
</g>
<g>
</g>
<g>
</g>
<g>
</g>
<g>
</g>
<g>
</g>
<g>
</g>
<g>
</g>
<g>
</g>
<g>
</g>
<g>
</g>
<g>
</g>
<g>
</g>
<g>
</g>
</svg>
