<?xml version="1.0" encoding="utf-8"?>
<!-- Svg Vector Icons : http://www.onlinewebfonts.com/icon -->
<!DOCTYPE svg PUBLIC "-//W3C//DTD SVG 1.1//EN" "http://www.w3.org/Graphics/SVG/1.1/DTD/svg11.dtd">
<svg version="1.1" xmlns="http://www.w3.org/2000/svg" xmlns:xlink="http://www.w3.org/1999/xlink" x="0px" y="0px" viewBox="0 0 1000 1000" enable-background="new 0 0 1000 1000" xml:space="preserve">
<metadata> Svg Vector Icons : http://www.onlinewebfonts.com/icon </metadata>
<g><path d="M500,10C229.8,10,10,229.8,10,500c0,270.1,219.8,490,490,490c270.1,0,490-219.9,490-490C990,229.8,770.1,10,500,10 M500,80c231.9,0,420,188.1,420,420c0,231.9-188.1,420-420,420C268.1,920,80,731.9,80,500C80,268.1,268.1,80,500,80"/><path d="M465,421.3h70v350h-70V421.3z"/><path d="M447.5,309.6c0,13.7,5.7,27.4,15.4,37.1c9.7,9.7,23.4,15.4,37.1,15.4c13.7,0,27.4-5.7,37.1-15.4c9.7-9.7,15.4-23.4,15.4-37.1c0-13.7-5.7-27.4-15.4-37.1c-9.7-9.7-23.4-15.4-37.1-15.4c-13.7,0-27.4,5.7-37.1,15.4C453.2,282.2,447.5,295.9,447.5,309.6"/></g>
</svg>