<?xml version="1.0" encoding="utf-8"?>
<!-- Generator: Adobe Illustrator 24.0.0, SVG Export Plug-In . SVG Version: 6.00 Build 0)  -->
<svg version="1.1" id="Layer_1" xmlns="http://www.w3.org/2000/svg" xmlns:xlink="http://www.w3.org/1999/xlink" x="0px" y="0px"
	 viewBox="0 0 512 512" style="enable-background:new 0 0 512 512;" xml:space="preserve">
<style type="text/css">
	.st0{fill:#E2E5E7;}
	.st1{fill:#B0B7BD;}
	.st2{fill:#CAD1D8;}
	.st3{fill:#86E0A6;}
</style>
<path class="st0" d="M480,128v352c0,17.6-14.4,32-32,32H128c-17.6,0-32-14.4-32-32V32c0-17.6,14.4-32,32-32h224L480,128z"/>
<path class="st1" d="M384,128h96L352,0v96C352,113.6,366.4,128,384,128z"/>
<polygon class="st2" points="480,224 384,128 480,128 "/>
<g>
	<path class="st2" d="M290.9,320.2V433c0,13.7-11.1,24.8-24.8,24.8H96v-17h148.1c13.7,0,24.8-11.1,24.8-24.8V303.2
		c0-2.2-0.3-4.3-0.9-6.3C280.7,297.2,290.9,307.5,290.9,320.2z"/>
</g>
<g>
	<g>
		<path class="st3" d="M186.8,362.6c0,17.8-14.4,32.2-32.2,32.2s-32.2-14.4-32.2-32.2s14.4-32.2,32.2-32.2S186.8,344.8,186.8,362.6z
			 M252.7,281.8c12.9,0,23.3,10.4,23.3,23.3v61v51.8c0,13.7-11.1,24.8-24.8,24.8H58c-13.7,0-24.8-11.1-24.8-24.8v-51.8v-61l0,0
			c0-12.9,10.4-23.3,23.3-23.3H103l2.2-9.3c3.3-14.4,16.2-24.5,30.9-24.5h37c14.8,0,27.6,10.2,30.9,24.5l2.1,9.3L252.7,281.8
			L252.7,281.8z M81.7,315.4c0-6.4-5.2-11.7-11.7-11.7c-6.5,0-11.7,5.2-11.7,11.7s5.2,11.7,11.7,11.7
			C76.5,327.1,81.7,321.9,81.7,315.4z M212,362.6c0-31.7-25.7-57.5-57.5-57.5s-57.5,25.7-57.5,57.5s25.7,57.5,57.5,57.5
			S212,394.3,212,362.6z"/>
	</g>
</g>
</svg>
