<svg width="20" height="20" viewBox="0 0 20 20" fill="none" xmlns="http://www.w3.org/2000/svg">
<path d="M15 6.66797C15 5.34189 14.4732 4.07012 13.5355 3.13243C12.5979 2.19475 11.3261 1.66797 10 1.66797C8.67392 1.66797 7.40215 2.19475 6.46447 3.13243C5.52678 4.07012 5 5.34189 5 6.66797C5 12.5013 2.5 14.168 2.5 14.168H17.5C17.5 14.168 15 12.5013 15 6.66797Z" stroke="black" stroke-width="2" stroke-linecap="round" stroke-linejoin="round"/>
<path d="M11.4419 17.5C11.2954 17.7526 11.0851 17.9622 10.8321 18.1079C10.5791 18.2537 10.2922 18.3304 10.0003 18.3304C9.70828 18.3304 9.42142 18.2537 9.1684 18.1079C8.91539 17.9622 8.7051 17.7526 8.55859 17.5" stroke="black" stroke-width="2" stroke-linecap="round" stroke-linejoin="round"/>
</svg>
