<?xml version="1.0" encoding="utf-8"?>
<!-- Generator: Adobe Illustrator 21.0.0, SVG Export Plug-In . SVG Version: 6.00 Build 0)  -->
<svg version="1.1" id="Layer_1" xmlns="http://www.w3.org/2000/svg" xmlns:xlink="http://www.w3.org/1999/xlink" x="0px" y="0px"
	 viewBox="-64 -64 640 640" style="enable-background:new 0 0 512 512;" xml:space="preserve">
<g>
	<path d="M474.6,120.2c-22.5-36.1-54.1-66.1-91.5-87.1C345.5,12,302,0,255.8,0c-35.2,0-68.9,7-99.5,19.6
		C110.4,38.5,71.4,70.1,43.8,110C30,129.9,19,152,11.5,175.5S0,224,0,249.9c0,0.3,0,0.5,0,0.7c0,0,0,0.1,0,0.1
		c0,48.3,14.2,95.5,40.7,135.8L41,387l0.3,0.4c0.7,0.9,1.3,1.8,1.8,2.7l0,0c0.7,1.3,1.5,2.9,1.9,3.9c0.1,0.3,0.2,0.6,0.2,0.8
		l-21.8,79.1l0,0c-0.7,2.4-1.1,4.8-1.3,7.3v0.6v0.8v0.1c0,4,0.8,7.9,2.3,11.4c2.2,5.3,5.9,9.7,10.5,12.9c2.3,1.6,4.9,2.8,7.7,3.7
		c2.8,0.9,5.7,1.3,8.7,1.3h1l1-0.1c3.7-0.4,7.2-1.3,10.6-2.8l77-27.7l0.5-0.2c2.1-0.9,4.3-1.3,6.6-1.3h0.1c2.1,0,4.2,0.4,6.2,1.2
		c1.1,0.4,2.9,1.1,5.2,2c7,2.6,18.9,6.7,31.1,10.1c4.3,1.2,9.3,2.4,14.7,3.6c8.2,1.7,17.4,3.4,26.8,4.6c9.4,1.2,18.9,2,27.9,2
		c35.3,0,68.9-7.1,99.2-20c45.5-19.3,83.7-51.5,110.6-91.8c26.9-40.3,42.4-88.9,42.4-140.7c0-17.3-1.8-34.5-5.5-51.4
		C500.7,171,489.7,144.2,474.6,120.2z M45.8,392.9L45.8,392.9L45.8,392.9L45.8,392.9z M458.9,334.6c-16.1,38.7-43.1,71.7-77.4,95.1
		c-17.2,11.7-36.1,20.9-56.5,27.3c-20.4,6.3-42.2,9.8-65,9.8c-4.5,0-9.6-0.3-15-0.8c-8.1-0.8-16.7-2.1-24.5-3.5
		c-7.8-1.5-15-3.1-20.1-4.6c-7.2-2-14.6-4.4-20.6-6.5c-3-1-5.7-2-7.8-2.8c-2.1-0.8-3.8-1.4-4.6-1.7c-6.1-2.4-12.7-3.6-19.3-3.6h-0.2
		c-6.8,0-13.5,1.3-19.9,3.8l0,0l-65.7,23.7L81,402.6l-17.6-4.9l17.6,4.8c0.7-2.7,1-5.3,1-7.6c0-2.8-0.4-5.3-0.8-7.5
		c-0.7-3.4-1.8-6.3-2.9-8.9c-1.1-2.6-2.3-4.9-3.5-7l-0.1-0.1l-0.1-0.1c-1-1.8-2.2-3.4-3.3-5.1l0,0C48.6,332,36.6,291.8,36.6,250.7
		h-0.1v-0.1c0-0.2,0-0.5,0-0.7c0-29.5,6.1-57.4,17.1-82.9C70.3,128.8,98,96.2,133,73.1c35-23.1,77.2-36.5,122.8-36.5
		c26.6,0,52,4.6,75.5,13c35.3,12.6,66.3,33.8,90.5,60.9c24.1,27.1,41.3,60.2,49,96.5c3.1,14.4,4.6,29.1,4.7,43.8
		C475.5,280.5,469.6,308.8,458.9,334.6z" fill="#777777"/>
	<circle cx="146.3" cy="256" r="36.6" fill="#777777"/>
	<circle cx="256" cy="256" r="36.6" fill="#777777"/>
	<circle cx="365.7" cy="256" r="36.6" fill="#777777"/>
</g>
</svg>
