<svg width="24" height="24" viewBox="0 0 24 24" fill="none" xmlns="http://www.w3.org/2000/svg">
<g id="Iconly/Light/Delete">
<g id="Delete">
<path id="Stroke 1" d="M19.3238 9.46875C19.3238 9.46875 18.7808 16.2037 18.4658 19.0407C18.3158 20.3957 17.4788 21.1898 16.1078 21.2148C13.4988 21.2618 10.8868 21.2648 8.27881 21.2098C6.95981 21.1828 6.13681 20.3788 5.98981 19.0478C5.67281 16.1858 5.13281 9.46875 5.13281 9.46875" stroke="#130F26" stroke-width="1.5" stroke-linecap="round" stroke-linejoin="round"/>
<path id="Stroke 3" d="M20.708 6.23828H3.75" stroke="#130F26" stroke-width="1.5" stroke-linecap="round" stroke-linejoin="round"/>
<path id="Stroke 5" d="M17.4406 6.239C16.6556 6.239 15.9796 5.684 15.8256 4.915L15.5826 3.699C15.4326 3.138 14.9246 2.75 14.3456 2.75H10.1126C9.53358 2.75 9.02558 3.138 8.87558 3.699L8.63258 4.915C8.47858 5.684 7.80258 6.239 7.01758 6.239" stroke="#130F26" stroke-width="1.5" stroke-linecap="round" stroke-linejoin="round"/>
</g>
</g>
</svg>
