<?xml version="1.0"?>
<svg xmlns="http://www.w3.org/2000/svg" width="24" height="24" viewBox="0 0 24 24">
    <path d="M 8 1 C 6.3431458 1 5 2.3431458 5 4 C 5 5.6568542 6.3431458 7 8 7 C 9.6568542 7 11 5.6568542 11 4 C 11 2.3431458 9.6568542 1 8 1 z M 16 1 C 14.343146 1 13 2.3431458 13 4 C 13 5.6568542 14.343146 7 16 7 C 17.656854 7 19 5.6568542 19 4 C 19 2.3431458 17.656854 1 16 1 z M 4 7 C 2.3431458 7 1 8.3431458 1 10 C 1 11.656854 2.3431458 13 4 13 C 5.6568542 13 7 11.656854 7 10 C 7 8.3431458 5.6568542 7 4 7 z M 20 7 C 18.343146 7 17 8.3431458 17 10 C 17 11.656854 18.343146 13 20 13 C 21.656854 13 23 11.656854 23 10 C 23 8.3431458 21.656854 7 20 7 z M 12 12 C 10.343146 12 9 13.343146 9 15 C 9 16.656854 10.343146 18 12 18 C 13.656854 18 15 16.656854 15 15 C 15 13.343146 13.656854 12 12 12 z M 2.09375 13.5 C 0.89375 14.2 2.9605947e-16 15.5 0 17 L 0 18.1875 C 0 18.1875 1 19 4 19 C 7 19 8 18.1875 8 18.1875 L 8 17 C 8 15.5 7.10625 14.2 5.90625 13.5 C 5.30625 13.8 4.7 14 4 14 C 3.3 14 2.69375 13.8 2.09375 13.5 z M 18.09375 13.5 C 16.89375 14.2 16 15.5 16 17 L 16 18.1875 C 16 18.1875 17 19 20 19 C 23 19 24 18.1875 24 18.1875 L 24 17 C 24 15.5 23.10625 14.2 21.90625 13.5 C 21.30625 13.8 20.7 14 20 14 C 19.3 14 18.69375 13.8 18.09375 13.5 z M 10.09375 18.5 C 8.89375 19.2 8 20.5 8 22 L 8 23.1875 C 8 23.1875 9 24 12 24 C 15 24 16 23.1875 16 23.1875 L 16 22 C 16 20.5 15.10625 19.2 13.90625 18.5 C 13.30625 18.8 12.7 19 12 19 C 11.3 19 10.69375 18.8 10.09375 18.5 z" fill="#CCCCCC"/>
</svg>
