<svg width="17" height="18" viewBox="0 0 17 18" fill="none" xmlns="http://www.w3.org/2000/svg">
<path class="home-icon" d="M6.19616 15.9447V13.5031C6.19615 12.8821 6.6925 12.3775 7.30748 12.3733H9.56015C10.1781 12.3733 10.679 12.8792 10.679 13.5031V13.5031V15.9523C10.6788 16.4795 11.0956 16.9105 11.6176 16.9228H13.1194C14.6165 16.9228 15.8301 15.6973 15.8301 14.1856V14.1856V7.24002C15.8221 6.6453 15.5456 6.08682 15.0792 5.72353L9.9431 1.5456C9.04332 0.818135 7.76424 0.818135 6.86445 1.5456L1.75089 5.73111C1.28275 6.09293 1.00577 6.65234 1 7.2476V14.1856C1 15.6973 2.21363 16.9228 3.71071 16.9228H5.21249C5.74746 16.9228 6.18114 16.4849 6.18114 15.9447V15.9447" stroke="#CCCCCC" stroke-width="1.3" stroke-linecap="round" stroke-linejoin="round"/>
</svg>
