<svg width="126" height="120" viewBox="0 0 126 120" fill="none" xmlns="http://www.w3.org/2000/svg">
<circle cx="66" cy="34" r="32.5" stroke="#4150D7" stroke-width="3" stroke-linecap="round" stroke-dasharray="10 10"/>
<circle cx="65.9993" cy="34.0001" r="23.5" transform="rotate(10.5322 65.9993 34.0001)" stroke="#4150D7" stroke-width="3" stroke-linecap="round" stroke-dasharray="10 10"/>
<circle cx="66" cy="34" r="13.5" stroke="#4150D7" stroke-width="3" stroke-linecap="round" stroke-dasharray="10 10"/>
<circle cx="66" cy="34" r="6" fill="#4150D7"/>
<path d="M14.4629 90.2891H8.50586L7.16797 94H5.23438L10.6641 79.7812H12.3047L17.7441 94H15.8203L14.4629 90.2891ZM9.07227 88.7461H13.9062L11.4844 82.0957L9.07227 88.7461ZM21.3379 94H19.5312V79H21.3379V94ZM30.7617 92.9551C30.0586 93.7819 29.0267 94.1953 27.666 94.1953C26.5397 94.1953 25.6803 93.8698 25.0879 93.2188C24.502 92.5612 24.2057 91.5911 24.1992 90.3086V83.4336H26.0059V90.2598C26.0059 91.8613 26.6569 92.6621 27.959 92.6621C29.3392 92.6621 30.2572 92.1478 30.7129 91.1191V83.4336H32.5195V94H30.8008L30.7617 92.9551ZM36.9727 83.4336L37.0215 84.6055C37.7962 83.694 38.8411 83.2383 40.1562 83.2383C41.6341 83.2383 42.64 83.8047 43.1738 84.9375C43.5254 84.4297 43.9811 84.0195 44.541 83.707C45.1074 83.3945 45.7747 83.2383 46.543 83.2383C48.8607 83.2383 50.0391 84.4655 50.0781 86.9199V94H48.2715V87.0273C48.2715 86.2721 48.099 85.709 47.7539 85.3379C47.4089 84.9603 46.8294 84.7715 46.0156 84.7715C45.3451 84.7715 44.7884 84.9733 44.3457 85.377C43.903 85.7741 43.6458 86.3112 43.5742 86.9883V94H41.7578V87.0762C41.7578 85.5397 41.0059 84.7715 39.502 84.7715C38.3171 84.7715 37.5065 85.276 37.0703 86.2852V94H35.2637V83.4336H36.9727ZM54.5215 83.4336L54.5801 84.7617C55.3874 83.7461 56.4421 83.2383 57.7441 83.2383C59.9772 83.2383 61.1035 84.498 61.123 87.0176V94H59.3164V87.0078C59.3099 86.2461 59.1341 85.6829 58.7891 85.3184C58.4505 84.9538 57.9199 84.7715 57.1973 84.7715C56.6113 84.7715 56.097 84.9277 55.6543 85.2402C55.2116 85.5527 54.8665 85.9629 54.6191 86.4707V94H52.8125V83.4336H54.5215ZM65.8105 94H64.0039V83.4336H65.8105V94ZM63.8574 80.6309C63.8574 80.3379 63.9453 80.0905 64.1211 79.8887C64.3034 79.6868 64.5703 79.5859 64.9219 79.5859C65.2734 79.5859 65.5404 79.6868 65.7227 79.8887C65.9049 80.0905 65.9961 80.3379 65.9961 80.6309C65.9961 80.9238 65.9049 81.168 65.7227 81.3633C65.5404 81.5586 65.2734 81.6562 64.9219 81.6562C64.5703 81.6562 64.3034 81.5586 64.1211 81.3633C63.9453 81.168 63.8574 80.9238 63.8574 80.6309ZM75.8301 88.4336V94H73.9551V79.7812H79.1992C80.7552 79.7812 81.9727 80.1784 82.8516 80.9727C83.737 81.7669 84.1797 82.8184 84.1797 84.127C84.1797 85.5072 83.7467 86.5716 82.8809 87.3203C82.0215 88.0625 80.7878 88.4336 79.1797 88.4336H75.8301ZM75.8301 86.9004H79.1992C80.2018 86.9004 80.9701 86.666 81.5039 86.1973C82.0378 85.722 82.3047 85.0384 82.3047 84.1465C82.3047 83.3001 82.0378 82.623 81.5039 82.1152C80.9701 81.6074 80.2376 81.3438 79.3066 81.3242H75.8301V86.9004ZM85.6738 88.6191C85.6738 87.584 85.8757 86.653 86.2793 85.8262C86.6895 84.9993 87.2559 84.3613 87.9785 83.9121C88.7077 83.4629 89.5378 83.2383 90.4688 83.2383C91.9076 83.2383 93.0697 83.7363 93.9551 84.7324C94.847 85.7285 95.293 87.0534 95.293 88.707V88.834C95.293 89.8626 95.0944 90.7871 94.6973 91.6074C94.3066 92.4212 93.7435 93.056 93.0078 93.5117C92.2786 93.9674 91.4388 94.1953 90.4883 94.1953C89.056 94.1953 87.8939 93.6973 87.002 92.7012C86.1165 91.7051 85.6738 90.3867 85.6738 88.7461V88.6191ZM87.4902 88.834C87.4902 90.0059 87.7604 90.9466 88.3008 91.6562C88.8477 92.3659 89.5768 92.7207 90.4883 92.7207C91.4062 92.7207 92.1354 92.3626 92.6758 91.6465C93.2161 90.9238 93.4863 89.9147 93.4863 88.6191C93.4863 87.4603 93.2096 86.5228 92.6562 85.8066C92.1094 85.084 91.3802 84.7227 90.4688 84.7227C89.5768 84.7227 88.8574 85.0775 88.3105 85.7871C87.7637 86.4967 87.4902 87.5124 87.4902 88.834ZM102.666 85.0547C102.393 85.0091 102.096 84.9863 101.777 84.9863C100.592 84.9863 99.7884 85.4909 99.3652 86.5V94H97.5586V83.4336H99.3164L99.3457 84.6543C99.9382 83.7103 100.778 83.2383 101.865 83.2383C102.217 83.2383 102.484 83.2839 102.666 83.375V85.0547ZM107.275 80.875V83.4336H109.248V84.8301H107.275V91.3828C107.275 91.806 107.363 92.125 107.539 92.3398C107.715 92.5482 108.014 92.6523 108.438 92.6523C108.646 92.6523 108.932 92.6133 109.297 92.5352V94C108.822 94.1302 108.359 94.1953 107.91 94.1953C107.103 94.1953 106.494 93.9512 106.084 93.4629C105.674 92.9746 105.469 92.2812 105.469 91.3828V84.8301H103.545V83.4336H105.469V80.875H107.275ZM117.891 94C117.786 93.7917 117.702 93.4206 117.637 92.8867C116.797 93.7591 115.794 94.1953 114.629 94.1953C113.587 94.1953 112.731 93.9023 112.061 93.3164C111.396 92.724 111.064 91.9753 111.064 91.0703C111.064 89.9701 111.481 89.1172 112.314 88.5117C113.154 87.8997 114.333 87.5938 115.85 87.5938H117.607V86.7637C117.607 86.1322 117.419 85.6309 117.041 85.2598C116.663 84.8822 116.107 84.6934 115.371 84.6934C114.727 84.6934 114.186 84.8561 113.75 85.1816C113.314 85.5072 113.096 85.901 113.096 86.3633H111.279C111.279 85.8359 111.465 85.3281 111.836 84.8398C112.214 84.3451 112.721 83.9544 113.359 83.668C114.004 83.3815 114.71 83.2383 115.479 83.2383C116.696 83.2383 117.65 83.5443 118.34 84.1562C119.03 84.7617 119.388 85.5983 119.414 86.666V91.5293C119.414 92.4993 119.538 93.2708 119.785 93.8438V94H117.891ZM114.893 92.623C115.459 92.623 115.996 92.4766 116.504 92.1836C117.012 91.8906 117.38 91.5098 117.607 91.041V88.873H116.191C113.978 88.873 112.871 89.5208 112.871 90.8164C112.871 91.3828 113.06 91.8255 113.438 92.1445C113.815 92.4635 114.3 92.623 114.893 92.623ZM124.209 94H122.402V79H124.209V94Z" fill="black"/>
<path d="M26.7466 116H25.3403V105.336H26.7466V116ZM30.8335 116H29.4272V105.336H30.8335V116ZM40.5601 106.493H37.1323V116H35.7334V106.493H32.313V105.336H40.5601V106.493ZM53.4434 114.601C53.082 115.119 52.5767 115.507 51.9272 115.766C51.2827 116.02 50.5308 116.146 49.6714 116.146C48.8022 116.146 48.0308 115.944 47.3569 115.539C46.6831 115.128 46.1606 114.547 45.7896 113.795C45.4233 113.043 45.2354 112.172 45.2256 111.181V110.25C45.2256 108.644 45.5991 107.399 46.3462 106.515C47.0981 105.631 48.1528 105.189 49.5103 105.189C50.6235 105.189 51.5195 105.475 52.1982 106.046C52.877 106.613 53.292 107.418 53.4434 108.463H52.0371C51.7734 107.052 50.9336 106.347 49.5176 106.347C48.5752 106.347 47.8599 106.679 47.3716 107.343C46.8882 108.002 46.644 108.959 46.6392 110.214V111.085C46.6392 112.282 46.9126 113.234 47.4595 113.942C48.0063 114.645 48.7461 114.997 49.6787 114.997C50.2061 114.997 50.6675 114.938 51.063 114.821C51.4585 114.704 51.7856 114.506 52.0444 114.228V111.833H49.5762V110.69H53.4434V114.601ZM60.4746 115.216C59.9473 115.836 59.1733 116.146 58.1528 116.146C57.3081 116.146 56.6636 115.902 56.2192 115.414C55.7798 114.921 55.5576 114.193 55.5527 113.231V108.075H56.9077V113.195C56.9077 114.396 57.396 114.997 58.3726 114.997C59.4077 114.997 60.0962 114.611 60.438 113.839V108.075H61.793V116H60.5039L60.4746 115.216ZM70.875 114.132L72.3984 108.075H73.7534L71.4463 116H70.3477L68.4214 109.994L66.5464 116H65.4478L63.1479 108.075H64.4956L66.0557 114.008L67.9014 108.075H68.9927L70.875 114.132ZM80.0303 116C79.9521 115.844 79.8887 115.565 79.8398 115.165C79.21 115.819 78.458 116.146 77.584 116.146C76.8027 116.146 76.1606 115.927 75.6577 115.487C75.1597 115.043 74.9106 114.481 74.9106 113.803C74.9106 112.978 75.2231 112.338 75.8481 111.884C76.478 111.425 77.3618 111.195 78.4995 111.195H79.8179V110.573C79.8179 110.099 79.6763 109.723 79.3931 109.445C79.1099 109.162 78.6924 109.02 78.1406 109.02C77.6572 109.02 77.252 109.142 76.9248 109.386C76.5977 109.63 76.4341 109.926 76.4341 110.272H75.0718C75.0718 109.877 75.2109 109.496 75.4893 109.13C75.7725 108.759 76.1533 108.466 76.6318 108.251C77.1152 108.036 77.645 107.929 78.2212 107.929C79.1343 107.929 79.8496 108.158 80.3672 108.617C80.8848 109.071 81.1533 109.699 81.1729 110.5V114.147C81.1729 114.875 81.2656 115.453 81.4512 115.883V116H80.0303ZM77.7817 114.967C78.2065 114.967 78.6094 114.857 78.9902 114.638C79.3711 114.418 79.647 114.132 79.8179 113.781V112.155H78.7559C77.0957 112.155 76.2656 112.641 76.2656 113.612C76.2656 114.037 76.4072 114.369 76.6904 114.608C76.9736 114.848 77.3374 114.967 77.7817 114.967ZM84.6519 109.035C85.2524 108.297 86.0337 107.929 86.9956 107.929C88.6704 107.929 89.5151 108.874 89.5298 110.763V116H88.1748V110.756C88.1699 110.185 88.0381 109.762 87.7793 109.489C87.5254 109.215 87.1274 109.079 86.5854 109.079C86.146 109.079 85.7603 109.196 85.4282 109.43C85.0962 109.665 84.8374 109.972 84.6519 110.353V116H83.2969V104.75H84.6519V109.035ZM96.4512 116C96.373 115.844 96.3096 115.565 96.2607 115.165C95.6309 115.819 94.8789 116.146 94.0049 116.146C93.2236 116.146 92.5815 115.927 92.0786 115.487C91.5806 115.043 91.3315 114.481 91.3315 113.803C91.3315 112.978 91.644 112.338 92.269 111.884C92.8989 111.425 93.7827 111.195 94.9204 111.195H96.2388V110.573C96.2388 110.099 96.0972 109.723 95.814 109.445C95.5308 109.162 95.1133 109.02 94.5615 109.02C94.0781 109.02 93.6729 109.142 93.3457 109.386C93.0186 109.63 92.855 109.926 92.855 110.272H91.4927C91.4927 109.877 91.6318 109.496 91.9102 109.13C92.1934 108.759 92.5742 108.466 93.0527 108.251C93.5361 108.036 94.0659 107.929 94.6421 107.929C95.5552 107.929 96.2705 108.158 96.7881 108.617C97.3057 109.071 97.5742 109.699 97.5938 110.5V114.147C97.5938 114.875 97.6865 115.453 97.8721 115.883V116H96.4512ZM94.2026 114.967C94.6274 114.967 95.0303 114.857 95.4111 114.638C95.792 114.418 96.0679 114.132 96.2388 113.781V112.155H95.1768C93.5166 112.155 92.6865 112.641 92.6865 113.612C92.6865 114.037 92.8281 114.369 93.1113 114.608C93.3945 114.848 93.7583 114.967 94.2026 114.967ZM101.556 106.156V108.075H103.036V109.123H101.556V114.037C101.556 114.354 101.622 114.594 101.754 114.755C101.886 114.911 102.11 114.989 102.428 114.989C102.584 114.989 102.799 114.96 103.072 114.901V116C102.716 116.098 102.369 116.146 102.032 116.146C101.427 116.146 100.97 115.963 100.663 115.597C100.355 115.231 100.201 114.711 100.201 114.037V109.123H98.7583V108.075H100.201V106.156H101.556ZM106.097 116H104.742V108.075H106.097V116ZM104.632 105.973C104.632 105.753 104.698 105.568 104.83 105.417C104.967 105.265 105.167 105.189 105.431 105.189C105.694 105.189 105.895 105.265 106.031 105.417C106.168 105.568 106.236 105.753 106.236 105.973C106.236 106.193 106.168 106.376 106.031 106.522C105.895 106.669 105.694 106.742 105.431 106.742C105.167 106.742 104.967 106.669 104.83 106.522C104.698 106.376 104.632 106.193 104.632 105.973Z" fill="black" fill-opacity="0.5"/>
</svg>
