<?xml version="1.0" encoding="iso-8859-1"?>
<!-- Generator: Adobe Illustrator 18.1.1, SVG Export Plug-In . SVG Version: 6.00 Build 0)  -->
<svg version="1.1" id="Capa_1" xmlns="http://www.w3.org/2000/svg" xmlns:xlink="http://www.w3.org/1999/xlink" x="0px" y="0px"
	 viewBox="0 0 612.002 612.002" style="enable-background:new 0 0 612.002 612.002;" xml:space="preserve">
<g>
	<g>
		<path d="M209.358,428.819c-36.241,0-66.365-26.672-71.783-61.416h-34.149c-12.457,0-22.553-10.099-22.553-22.553
			s10.099-22.553,22.553-22.553h33.278v-73.149h-33.278c-12.457,0-22.553-10.099-22.553-22.553s10.099-22.553,22.553-22.553h33.278
			v-86.527H36.572C16.372,117.512,0,133.888,0,154.086V417.36c0,20.192,16.372,36.566,36.572,36.566h33.398v83.706
			c0,8.128,5.434,15.255,13.277,17.401c1.583,0.434,3.186,0.644,4.769,0.644c6.258,0,12.214-3.264,15.523-8.844l55.057-92.906
			h244.051c14.47,0,26.939-8.424,32.867-20.614l-2.659-4.491H209.358V428.819z"/>
		<path d="M575.432,56.325H209.358c-20.196,0-36.568,16.372-36.568,36.568v263.276c0,20.192,16.372,36.564,36.568,36.564h244.053
			l55.057,92.908c3.307,5.579,9.263,8.845,15.521,8.845c1.585,0,3.188-0.209,4.771-0.644c7.841-2.147,13.276-9.271,13.276-17.403
			v-83.706h33.398c20.198,0,36.568-16.37,36.568-36.564V92.893C612,72.697,595.63,56.325,575.432,56.325z M508.574,306.211H276.216
			c-12.457,0-22.553-10.099-22.553-22.553c0-12.455,10.097-22.553,22.553-22.553h232.358c12.455,0,22.553,10.099,22.553,22.553
			C531.13,296.113,521.029,306.211,508.574,306.211z M508.574,187.957H276.216c-12.457,0-22.553-10.099-22.553-22.553
			c0-12.455,10.097-22.553,22.553-22.553h232.358c12.455,0,22.553,10.099,22.553,22.553
			C531.13,177.858,521.029,187.957,508.574,187.957z"/>
	</g>
</g>
<g>
</g>
<g>
</g>
<g>
</g>
<g>
</g>
<g>
</g>
<g>
</g>
<g>
</g>
<g>
</g>
<g>
</g>
<g>
</g>
<g>
</g>
<g>
</g>
<g>
</g>
<g>
</g>
<g>
</g>
</svg>
