<svg width="466.5" height="427.5" viewBox="0 0 311 285" fill="none" xmlns="http://www.w3.org/2000/svg">
<path opacity="0.1" d="M310.999 186.437C310.999 186.614 310.999 186.791 310.999 186.965C310.966 190.017 310.772 193.061 310.418 196.097C310.419 196.115 310.419 196.133 310.418 196.152C310.39 196.404 310.359 196.654 310.327 196.906C310.275 197.332 310.219 197.756 310.157 198.182C309.432 203.373 308.233 208.496 306.574 213.495C304.35 220.251 301.207 226.713 297.22 232.722C295.994 234.559 294.688 236.337 293.302 238.056C292.562 238.967 291.807 239.858 291.027 240.734C290.48 241.347 289.923 241.95 289.355 242.544L289.001 242.909C286.015 245.97 282.795 248.826 279.368 251.455C273.775 255.783 267.753 259.548 261.634 263.04C261.286 263.241 260.935 263.438 260.584 263.621C260.559 263.637 260.533 263.652 260.506 263.664C252.191 268.357 243.568 272.593 234.683 275.984C224.957 279.705 214.914 282.412 204.61 283.595C190.247 285.243 175.711 283.903 161.435 281.599C149.562 279.695 137.834 277.079 126.321 273.767L124.426 273.213C123.444 272.921 122.463 272.624 121.483 272.32C115.564 270.492 109.712 268.462 103.926 266.228C89.3941 260.641 75.5116 253.683 62.4946 245.462C60.8373 244.421 59.2039 243.358 57.5942 242.271C55.3445 240.759 53.1216 239.202 50.9257 237.601L49.5709 236.62C43.8241 232.42 38.44 227.804 33.4682 222.816C26.781 216.022 21.0664 208.358 17.3096 199.609C16.7171 198.235 16.1743 196.833 15.6813 195.406L15.6347 195.264C15.3861 194.539 15.1561 193.814 14.9448 193.06C14.6341 191.98 14.3616 190.888 14.1275 189.782C14.0778 189.57 14.0343 189.358 13.9939 189.144C13.2512 185.421 12.9232 181.637 13.0151 177.851C13.0928 174.534 13.509 171.231 14.2581 167.988C15.0247 164.626 16.2062 161.359 17.7788 158.25C19.1999 155.456 21.0107 152.848 23.1639 150.497C24.677 148.852 26.3787 147.368 28.2384 146.07C31.6099 143.726 35.3482 142.093 39.2231 140.802C41.0441 140.193 42.8899 139.659 44.745 139.163C46.0595 138.81 47.3801 138.473 48.6946 138.142L52.5726 137.165C55.0586 136.532 57.5445 135.883 59.9932 135.181C66.6679 133.278 73.2091 130.975 79.2592 127.54C80.2163 126.998 81.192 126.403 82.1678 125.765C83.4107 124.958 84.6351 124.082 85.847 123.137C87.0713 122.179 88.2708 121.155 89.4143 120.071C89.5914 119.902 89.7654 119.734 89.9394 119.563C90.8717 118.646 91.7759 117.686 92.6149 116.688C93.0251 116.201 93.4229 115.705 93.802 115.2C94.3271 114.501 94.8243 113.79 95.2842 113.059C97.5899 109.405 99.0131 105.372 98.8453 101.123C98.8208 100.423 98.7534 99.7244 98.6433 99.0314C98.2394 96.47 97.851 93.9696 97.5651 91.5242C96.3656 81.4093 96.8721 72.2371 105.004 63.6189C115.116 52.9064 130.985 50.7221 145.432 51.5779C187.199 54.0435 225.221 76.3039 258.635 102.805C261.525 105.095 264.38 107.416 267.199 109.767C267.91 110.359 268.622 110.954 269.334 111.554C274.617 115.995 279.819 120.601 284.663 125.536C285.055 125.936 285.446 126.336 285.832 126.739C286.068 126.989 286.307 127.235 286.54 127.488C288.05 129.083 289.516 130.717 290.937 132.39C294.744 136.831 298.106 141.589 300.98 146.604C305.382 154.474 308.361 162.969 309.799 171.745C310.34 174.932 310.696 178.144 310.865 181.367C310.918 182.315 310.952 183.267 310.971 184.215C310.971 184.52 310.971 184.821 310.971 185.126C311.002 185.567 311.002 185.996 310.999 186.437Z" fill="#6C63FF"/>
<path d="M57.7211 178.286L55.377 224.48L57.7211 224.514L59.6257 177.637L57.7211 178.286Z" fill="#3F3D56"/>
<path d="M49.0767 201.691H20.0684V208.666H49.0767V201.691Z" fill="#6C63FF"/>
<path d="M50.9821 207.852V212.231H21.0171C19.9564 211.385 18.9084 210.515 17.873 209.62V207.852H50.9821Z" fill="#3F3D56"/>
<path d="M56.9648 197.884C56.8827 198.305 56.7758 198.72 56.663 199.133C56.3304 200.329 55.9304 201.508 55.8528 202.751C55.7487 204.392 56.1458 206.301 55.1202 207.494C54.8565 207.802 54.5122 208.032 54.2763 208.361C54.24 208.413 54.2067 208.467 54.1767 208.524C53.9658 208.91 53.9408 209.38 53.9379 209.821C53.9404 210.762 53.9957 211.702 54.1035 212.635C54.4507 215.847 55.1363 219.065 54.2353 222.097C54.0721 222.623 53.8818 223.138 53.6654 223.64C53.2259 224.71 52.7468 225.766 52.6032 226.926C52.4978 227.786 52.53 228.671 52.5241 229.546C52.0612 229.382 51.5987 229.216 51.1367 229.046C48.3462 228.024 45.587 226.889 42.8591 225.64C42.8664 225.596 42.8737 225.55 42.8796 225.507C43.0891 224.063 42.8019 222.587 42.4533 221.179C41.7207 218.196 40.6835 215.242 40.0696 212.238C39.8224 211.065 39.6602 209.871 39.5847 208.67C39.5671 208.4 39.5568 208.129 39.5554 207.859C39.548 207.505 39.5554 207.151 39.5685 206.794C39.5993 206.082 39.6271 205.237 39.1129 204.804C38.8301 204.569 38.4566 204.528 38.1269 204.386C37.4911 204.112 37.0559 203.476 36.552 202.966C36.3116 202.708 36.018 202.519 35.6967 202.414C35.3753 202.309 35.0358 202.293 34.7074 202.366C31.414 203.202 28.9937 206.295 25.9288 207.859C25.8101 207.92 25.6914 207.979 25.5713 208.034C25.1748 208.194 24.7975 208.408 24.4476 208.67C24.2017 208.859 24.0234 209.137 23.9436 209.456C23.8659 209.8 23.9333 210.16 23.9714 210.514C24.0331 211.089 24.0108 211.671 23.9055 212.238C23.8658 212.458 23.8134 212.675 23.7487 212.887C23.6315 213.271 23.4748 213.648 23.3253 214.022C22.544 213.441 21.7738 212.846 21.0149 212.238C19.9542 211.392 18.9062 210.522 17.8709 209.627L17.2424 209.067C14.5329 206.718 11.9945 204.137 9.65039 201.348C9.96245 200.374 10.4137 199.469 10.6305 198.472C10.7536 197.899 10.799 197.304 10.969 196.747C11.1649 196.171 11.4375 195.629 11.7777 195.142C13.0235 193.218 14.5447 191.533 16.2813 190.152C18.0965 188.712 20.193 187.557 21.8266 185.922C22.4895 185.279 23.061 184.529 23.5217 183.698C23.5495 183.648 23.5759 183.594 23.5993 183.536C23.7268 183.242 23.8152 182.93 23.8615 182.608C23.9788 181.881 23.9612 181.083 24.0198 180.386C26.0098 180.767 28.0385 180.835 30.0456 180.587C32.3824 180.296 34.6679 179.578 37.0047 179.299C37.1805 179.276 37.3578 179.258 37.535 179.242C38.2837 179.176 39.0338 179.161 39.7854 179.171C40.4139 179.171 41.0424 179.202 41.6709 179.224L48.5904 179.484C49.3567 179.513 50.139 179.545 50.8525 179.855C51.6993 180.223 52.3776 180.957 52.9212 181.763C52.99 181.867 53.0589 181.97 53.1233 182.077C53.5706 182.8 53.9293 183.585 54.1899 184.412C54.2178 184.496 54.2441 184.574 54.269 184.666C54.335 184.892 54.3921 185.119 54.4434 185.349C54.4829 185.529 54.5181 185.709 54.5503 185.891C54.7115 186.79 54.8067 187.708 55.0616 188.575C55.0792 188.639 55.0983 188.702 55.1188 188.764C55.425 189.714 55.9333 190.566 56.3172 191.479C56.594 192.14 56.8052 192.832 56.9472 193.544C57.2341 194.973 57.2401 196.453 56.9648 197.884Z" fill="#35323E"/>
<path d="M35.9335 139.838C35.3153 139.293 34.4186 139.692 33.6949 140.044C33.0881 140.341 32.4634 140.591 31.8255 140.792C31.6949 140.848 31.5533 140.864 31.4152 140.839C31.1222 140.761 30.9992 140.377 30.7809 140.143C30.4014 139.739 29.7802 139.835 29.2909 140.054C28.8016 140.273 28.3181 140.589 27.7936 140.541C27.2339 140.492 26.7475 140.034 26.182 140.02C25.1858 139.994 24.3492 141.353 23.4072 140.993C22.8329 140.774 22.3816 139.947 21.8161 140.182C21.3766 140.367 21.337 141.04 21.0719 141.48C20.7598 141.992 20.1518 142.137 19.6317 142.364C17.9923 143.081 16.9067 145.103 17.1206 147.04C17.2393 148.109 17.7066 149.089 18.0157 150.109C18.9329 153.076 18.6179 156.422 19.7738 159.283C19.9203 159.131 20.0024 159.074 20.1445 158.923C19.779 159.763 19.7085 160.722 19.9467 161.616C20.0683 162.065 20.2661 162.484 20.4155 162.923C20.5708 163.416 20.6961 163.92 20.7906 164.432L22.0652 170.657C22.5633 173.09 23.0629 175.524 23.1493 178.015C23.2032 179.635 23.0911 181.257 22.8153 182.849C25.1242 182.425 27.2369 181.292 29.5766 181.306C30.4351 181.306 31.2863 181.468 32.1375 181.598C34.6192 181.983 37.1225 182.171 39.6284 182.161C40.0181 182.186 40.4084 182.125 40.777 181.983C41.0993 181.83 41.3631 181.559 41.6678 181.363C42.2641 180.974 42.9863 180.876 43.6735 180.876C46.8072 180.813 49.8267 182.083 52.94 182.531C54.1692 179.674 54.2425 176.252 53.2989 173.266C53.0191 172.378 52.6426 171.514 52.5313 170.581C52.4865 170.008 52.4748 169.432 52.4961 168.857C52.4912 167.385 52.2517 165.925 51.7885 164.545C51.6068 164.005 51.3885 163.455 51.4075 162.88C51.4266 162.304 51.683 161.767 51.935 161.258C52.4463 160.219 52.9605 159.172 53.6828 158.296C54.4227 157.391 55.3486 156.701 56.2642 156.025L58.5248 154.344C58.2157 152.182 57.8172 149.905 56.9894 147.916C56.1617 145.927 54.9237 144.099 53.2491 142.936C52.6846 142.56 52.0937 142.235 51.4823 141.963C50.6267 141.564 49.7359 141.212 48.8085 141.152C47.7537 141.086 46.7149 141.399 45.6733 141.593C42.3945 142.205 38.5355 142.13 35.9335 139.838Z" fill="#6C63FF"/>
<path d="M60.6508 177.359L59.5754 178.863L57.5477 181.697L55.2036 184.972L54.5487 185.887H53.2785L21.825 185.927L2.1272 185.952H1.24816C1.13096 185.546 1.02254 185.141 0.922919 184.719C0.776413 184.115 0.647976 183.504 0.537607 182.886C0.514166 182.767 0.493655 182.649 0.474609 182.529L7.6212 177.356L10.3081 177.34L18.5272 177.288L23.1172 177.259H23.9552H24.4812L27.5402 177.241L50.8553 177.093L52.0479 177.085H52.565L53.9349 177.077L59.0319 177.045L60.0105 176.633L60.0823 176.717L60.6508 177.359Z" fill="#3F3D56"/>
<path d="M60.2111 176.548L60.0895 176.71L59.2896 177.753L57.6429 179.906L54.1897 184.414L23.5991 183.549L0.531609 182.9C0.508168 182.782 0.487657 182.663 0.468611 182.543C0.118443 180.462 -0.0362127 178.345 0.00711467 176.229L2.56512 174.778L3.15115 174.444L7.7119 171.849L11.7145 169.578L22.1545 171.08L24.4664 171.413L25.5125 171.562L27.0435 171.783L27.1724 171.802L51.1804 175.249L53.8337 175.63L55.391 175.854L60.1906 176.545L60.2111 176.548Z" fill="#504F60"/>
<path d="M55.2296 184.336L55.2047 184.973L55.0582 188.573L54.27 208.362L54.103 212.639L53.6635 223.643L53.4159 229.859L52.5222 229.549C52.0592 229.386 51.5967 229.22 51.1348 229.05L53.2782 185.903L53.3236 184.998L54.2671 184.673L55.2296 184.336Z" fill="#3F3D56"/>
<path d="M2.1955 184.289L2.12957 185.955L2.03287 188.388C1.75354 187.619 1.49764 186.836 1.26519 186.038L1.24321 185.958C1.12601 185.553 1.01759 185.147 0.917969 184.725L2.1955 184.289Z" fill="#3F3D56"/>
<path d="M40.5049 159.758C44.227 159.758 47.2443 155.256 47.2443 149.701C47.2443 144.147 44.227 139.645 40.5049 139.645C36.7829 139.645 33.7656 144.147 33.7656 149.701C33.7656 155.256 36.7829 159.758 40.5049 159.758Z" fill="#A1616A"/>
<path opacity="0.1" d="M40.5049 159.758C44.227 159.758 47.2443 155.256 47.2443 149.701C47.2443 144.147 44.227 139.645 40.5049 139.645C36.7829 139.645 33.7656 144.147 33.7656 149.701C33.7656 155.256 36.7829 159.758 40.5049 159.758Z" fill="black"/>
<path d="M41.4585 154.005C46.6369 154.005 50.8349 149.357 50.8349 143.623C50.8349 137.89 46.6369 133.242 41.4585 133.242C36.28 133.242 32.082 137.89 32.082 143.623C32.082 149.357 36.28 154.005 41.4585 154.005Z" fill="#A1616A"/>
<path d="M41.6439 127.622C41.0714 127.672 40.503 127.768 39.9429 127.909C38.4603 128.308 37.1783 129.193 35.9301 130.063C35.3704 130.454 34.7947 130.861 34.4475 131.435C33.8233 132.465 34.0651 133.776 33.7149 134.919C33.5332 135.507 33.1992 136.034 32.9165 136.58C32.1385 138.079 31.7312 139.726 31.3313 141.356C31.2492 141.693 31.2258 142.15 31.5583 142.28C31.7498 142.324 31.949 142.299 32.1268 142.209C33.1772 141.824 34.5119 141.714 35.2913 142.494C36.0707 143.275 36.0048 144.658 36.9322 145.252C37.9944 145.938 39.6528 145.109 40.6169 145.919C41.03 146.266 41.1794 146.822 41.5179 147.241C42.3061 148.214 43.8224 148.167 45.0839 147.97C45.8076 147.857 46.6954 147.781 47.1349 148.344C47.3459 148.61 47.406 148.975 47.6507 149.215C48.0902 149.649 48.8945 149.429 49.3238 148.983C49.753 148.537 49.9581 147.933 50.3156 147.432C51.0115 146.459 52.2349 145.928 52.9527 144.966C53.5534 144.155 53.7351 143.14 53.8992 142.16L54.5101 138.528C54.7577 137.056 54.9833 135.446 54.2347 134.149C53.968 133.682 53.5856 133.279 53.3556 132.796C53.2018 132.472 53.1154 132.129 52.9366 131.823C52.7247 131.503 52.4714 131.22 52.185 130.983L50.739 129.657C50.2446 129.178 49.7159 128.744 49.1582 128.36C47.0939 127.028 44.0026 127.378 41.6439 127.622Z" fill="#464353"/>
<path d="M10.7625 154.364C10.4153 154.773 10.0944 155.214 9.72231 155.597C9.39495 155.919 9.05264 156.222 8.69676 156.505C8.12245 156.981 7.56084 157.474 7.01193 157.983C6.43926 158.484 5.92107 159.057 5.46775 159.691C4.6854 160.854 4.31474 162.301 3.58221 163.503C2.93465 164.569 2.02191 165.41 1.36409 166.468C1.07551 166.913 0.861158 167.411 0.731185 167.939C0.634169 168.451 0.590419 168.972 0.600794 169.495C0.587608 170.351 0.575888 171.217 0.734116 172.056C0.892343 172.895 1.23956 173.719 1.83438 174.269C2.38671 174.779 3.1002 175.015 3.79904 175.209C4.15944 175.308 4.54915 175.401 4.89198 175.243C5.14284 175.103 5.36059 174.9 5.52782 174.65L7.31081 172.379C8.50337 170.854 9.74282 169.297 11.3793 168.405C11.8921 168.127 12.4327 167.918 12.9469 167.649C15.1269 166.486 16.6682 164.105 17.2659 161.509C17.4124 160.875 17.5062 160.228 17.6014 159.581L17.8593 157.806C17.8791 157.717 17.8791 157.624 17.8593 157.535C17.8189 157.435 17.7539 157.35 17.6718 157.289C16.4298 156.178 15.267 154.964 14.1937 153.655C13.9388 153.344 13.7 152.917 13.4055 152.656C13.0363 152.332 13.0641 152.356 12.6202 152.656C11.9373 153.135 11.313 153.709 10.7625 154.364Z" fill="#A1616A"/>
<path d="M22.9581 166.171C22.9433 166.134 22.9217 166.1 22.8948 166.072C22.8678 166.043 22.8359 166.021 22.8011 166.007C22.7663 165.993 22.7292 165.987 22.6922 165.989C22.6551 165.991 22.6188 166.001 22.5854 166.019C22.552 166.037 22.5222 166.062 22.4978 166.093C22.4735 166.124 22.455 166.16 22.4436 166.199C22.4321 166.238 22.4279 166.28 22.4313 166.321C22.4346 166.361 22.4454 166.401 22.4629 166.437L22.3164 166.517L26.6852 176.431L27.4749 176.004L23.1061 166.084L22.9581 166.171Z" fill="#3F3D56"/>
<path opacity="0.04" d="M10.7625 154.364C10.4153 154.773 10.0944 155.214 9.72231 155.597C9.39495 155.919 9.05264 156.222 8.69676 156.505C8.12245 156.981 7.56084 157.474 7.01193 157.983C6.43926 158.484 5.92107 159.057 5.46775 159.691C4.6854 160.854 4.31474 162.301 3.58221 163.503C2.93465 164.569 2.02191 165.41 1.36409 166.468C1.07551 166.913 0.861158 167.411 0.731185 167.939C0.634169 168.451 0.590419 168.972 0.600794 169.495C0.587608 170.351 0.575888 171.217 0.734116 172.056C0.892343 172.895 1.23956 173.719 1.83438 174.269C2.38671 174.779 3.1002 175.015 3.79904 175.209C4.15944 175.308 4.54915 175.401 4.89198 175.243C5.14284 175.103 5.36059 174.9 5.52782 174.65L7.31081 172.379C8.50337 170.854 9.74282 169.297 11.3793 168.405C11.8921 168.127 12.4327 167.918 12.9469 167.649C15.1269 166.486 16.6682 164.105 17.2659 161.509C17.4124 160.875 17.5062 160.228 17.6014 159.581L17.8593 157.806C17.8791 157.717 17.8791 157.624 17.8593 157.535C17.8189 157.435 17.7539 157.35 17.6718 157.289C16.4298 156.178 15.267 154.964 14.1937 153.655C13.9388 153.344 13.7 152.917 13.4055 152.656C13.0363 152.332 13.0641 152.356 12.6202 152.656C11.9373 153.135 11.313 153.709 10.7625 154.364Z" fill="black"/>
<path d="M61.2672 172.633C61.2526 173.668 61.2159 174.734 60.8277 175.678C60.6607 176.087 60.4014 176.489 60.0131 176.623C59.7782 176.684 59.535 176.693 59.2967 176.653C56.4224 176.373 53.5261 176.627 50.7275 177.405C51.4747 175.751 51.0455 173.767 51.252 171.931C51.3092 171.43 51.4132 170.937 51.4527 170.434C51.5992 168.649 50.9092 166.917 50.5927 165.155C50.318 163.631 50.318 162.061 50.5927 160.536C50.6466 160.143 50.7685 159.766 50.9517 159.425C51.1663 159.093 51.4483 158.821 51.7751 158.632C52.9618 157.884 54.3609 157.798 55.6941 157.897C56.5922 157.963 58.3928 157.869 59.1414 158.481C59.9604 159.151 60.2197 161.4 60.4409 162.44C60.7722 164.035 60.9974 165.654 61.1149 167.285C61.2584 169.063 61.2892 170.849 61.2672 172.633Z" fill="#A1616A"/>
<path d="M8.78711 176.223L14.0614 180.116L37.7955 179.142L22.1192 176.223H8.78711Z" fill="white"/>
<path d="M15.7422 145.297C14.8763 146.142 14.1423 147.138 13.3219 148.038C12.1967 149.274 10.9177 150.325 9.64453 151.371C10.101 151.512 10.5165 151.783 10.8504 152.155C11.1843 152.528 11.425 152.99 11.5491 153.496C11.6048 153.735 11.6326 153.983 11.6956 154.216C11.8421 154.769 12.1645 155.246 12.5102 155.676C13.9958 157.53 16.0747 158.902 16.9508 161.191C16.9794 161.303 17.0414 161.4 17.1266 161.467C17.1979 161.502 17.2771 161.512 17.3537 161.496C18.1463 161.404 18.7529 160.696 19.2583 160.009C20.3132 158.549 21.2288 156.936 21.7489 155.155C22.269 153.374 22.3525 151.405 21.7856 149.64C21.5028 148.761 21.0662 147.954 20.6326 147.154C20.2526 146.454 19.8736 145.756 19.4957 145.058C19.2979 144.69 19.0459 143.942 18.6576 143.76C17.8196 143.361 16.2798 144.701 15.7422 145.297Z" fill="#6C63FF"/>
<path d="M58.8933 155.779L60.1401 159.023C58.7828 158.498 57.3322 158.338 55.9081 158.557C54.484 158.776 53.1274 159.366 51.9504 160.28C51.2398 160.843 50.5878 161.551 50.267 162.449C50.1086 162.482 49.945 162.466 49.7949 162.4C49.6448 162.335 49.5144 162.225 49.4187 162.081C49.2312 161.79 49.1224 161.445 49.1052 161.088C48.9895 159.842 49.4158 158.621 49.8377 157.456C50.034 156.911 50.2362 156.355 50.5849 155.912C50.9336 155.469 51.3966 155.177 51.8595 154.902C53.3365 153.997 54.8834 153.241 56.4818 152.641C57.1557 152.399 57.8619 152.404 58.2399 153.101C58.6779 153.933 58.5505 154.894 58.8933 155.779Z" fill="#6C63FF"/>
<path d="M8.8183 165.516C9.13036 165.791 9.40433 166.117 9.72518 166.38C10.0645 166.641 10.4256 166.865 10.8035 167.05L12.248 167.819C12.6957 168.076 13.1641 168.287 13.6472 168.448C14.2654 168.631 14.9144 168.649 15.5356 168.82C16.3194 169.034 17.0359 169.48 17.808 169.738C18.58 169.996 19.484 170.038 20.1286 169.501C20.5315 169.165 20.8363 168.61 21.3358 168.528C21.6582 168.481 21.9688 168.653 22.2559 168.82L26.0153 171.008C26.5222 171.303 27.0584 171.631 27.3236 172.194C27.5888 172.756 27.41 173.611 26.8518 173.757C26.6573 173.782 26.4616 173.794 26.2658 173.795C26.0724 173.82 25.8614 173.947 25.8351 174.163C25.8341 174.297 25.866 174.428 25.9274 174.544C26.0958 174.972 26.1457 175.485 25.9493 175.9C25.753 176.315 25.271 176.573 24.8857 176.387C24.9516 177.014 24.3348 177.454 23.7854 177.621C22.3995 178.041 20.93 177.783 19.5133 177.517C18.9566 177.413 18.3911 177.306 17.8841 177.031C17.6409 176.899 17.4153 176.73 17.1692 176.609C16.4938 176.276 15.7261 176.32 14.9877 176.335C11.5726 176.401 8.18685 175.7 4.82892 175.003C4.20626 174.873 3.56603 174.735 3.03421 174.354C2.00866 173.614 1.62774 172.096 1.79623 170.753C1.96471 169.41 2.58004 168.194 3.18511 167.013L3.96892 165.483C4.07139 165.249 4.2148 165.039 4.39086 164.867C5.54387 163.892 7.83084 164.636 8.8183 165.516Z" fill="#A1616A"/>
<path opacity="0.04" d="M8.8183 165.516C9.13036 165.791 9.40433 166.117 9.72518 166.38C10.0645 166.641 10.4256 166.865 10.8035 167.05L12.248 167.819C12.6957 168.076 13.1641 168.287 13.6472 168.448C14.2654 168.631 14.9144 168.649 15.5356 168.82C16.3194 169.034 17.0359 169.48 17.808 169.738C18.58 169.996 19.484 170.038 20.1286 169.501C20.5315 169.165 20.8363 168.61 21.3358 168.528C21.6582 168.481 21.9688 168.653 22.2559 168.82L26.0153 171.008C26.5222 171.303 27.0584 171.631 27.3236 172.194C27.5888 172.756 27.41 173.611 26.8518 173.757C26.6573 173.782 26.4616 173.794 26.2658 173.795C26.0724 173.82 25.8614 173.947 25.8351 174.163C25.8341 174.297 25.866 174.428 25.9274 174.544C26.0958 174.972 26.1457 175.485 25.9493 175.9C25.753 176.315 25.271 176.573 24.8857 176.387C24.9516 177.014 24.3348 177.454 23.7854 177.621C22.3995 178.041 20.93 177.783 19.5133 177.517C18.9566 177.413 18.3911 177.306 17.8841 177.031C17.6409 176.899 17.4153 176.73 17.1692 176.609C16.4938 176.276 15.7261 176.32 14.9877 176.335C11.5726 176.401 8.18685 175.7 4.82892 175.003C4.20626 174.873 3.56603 174.735 3.03421 174.354C2.00866 173.614 1.62774 172.096 1.79623 170.753C1.96471 169.41 2.58004 168.194 3.18511 167.013L3.96892 165.483C4.07139 165.249 4.2148 165.039 4.39086 164.867C5.54387 163.892 7.83084 164.636 8.8183 165.516Z" fill="black"/>
<path d="M53.5412 168.312C52.7779 168.711 51.9018 168.75 51.1048 169.057C50.3078 169.364 49.6309 169.915 48.8999 170.364C46.9953 171.542 44.7977 171.986 42.6396 172.41C41.3313 172.669 40.0025 172.929 38.6839 172.867C36.8995 172.783 35.1854 172.124 33.4566 171.628C31.7278 171.132 29.8833 170.797 28.1706 171.355C27.2763 171.657 26.4587 172.187 25.7842 172.904C25.1096 173.621 24.5971 174.503 24.2882 175.48C23.9293 176.647 23.8795 177.904 23.9483 179.133C24.3087 179.427 24.8127 179.02 25.009 178.574C25.2053 178.127 25.3123 177.581 25.6932 177.321C26.354 177.57 26.5151 178.544 27.0601 179.026C27.4 179.328 27.8542 179.407 28.2864 179.475L30.5133 179.826C31.0495 179.91 31.6721 179.967 32.0604 179.548C32.2494 179.346 32.3534 179.062 32.5263 178.844C32.8808 178.41 33.4727 178.335 34.0001 178.394C35.6469 178.575 37.191 179.758 38.8261 179.477C39.3886 179.381 39.9117 179.115 40.4479 178.906C43.6256 177.664 47.1564 178.419 50.4631 177.707C51.7245 177.436 52.939 176.956 54.1389 176.45C54.7909 176.176 55.4502 175.889 56.0069 175.425C56.5343 174.976 56.9502 174.386 57.2157 173.711C57.4812 173.035 57.5875 172.296 57.5247 171.563C57.402 170.445 56.8984 169.422 56.1168 168.702C55.8589 168.458 55.5205 167.993 55.2114 167.84C54.6209 167.553 54.0422 168.051 53.5412 168.312Z" fill="#A1616A"/>
<g opacity="0.1">
<path opacity="0.1" d="M49.2592 147.593C49.0146 147.353 48.9545 146.988 48.7435 146.722C48.304 146.159 47.4162 146.235 46.6924 146.349C45.431 146.545 43.9088 146.59 43.1265 145.619C42.788 145.2 42.6386 144.645 42.2254 144.297C41.2614 143.486 39.603 144.316 38.5408 143.63C37.6134 143.031 37.6735 141.643 36.8999 140.873C36.1264 140.102 34.7858 140.203 33.7354 140.587C33.5576 140.677 33.3584 140.702 33.1669 140.658C32.8344 140.529 32.8578 140.071 32.9399 139.734C33.3398 138.104 33.7471 136.457 34.5251 134.958C34.8078 134.412 35.1418 133.885 35.3235 133.297C35.6414 132.269 35.4788 131.106 35.8964 130.133C35.448 130.457 35.0173 130.811 34.7404 131.268C34.1163 132.298 34.358 133.609 34.0079 134.752C33.8262 135.34 33.4922 135.867 33.2094 136.413C32.4315 137.912 32.0242 139.559 31.6242 141.189C31.5422 141.526 31.5187 141.984 31.8513 142.113C32.0428 142.157 32.242 142.132 32.4198 142.042C33.4702 141.658 34.8049 141.547 35.5843 142.327C36.3637 143.108 36.2978 144.491 37.2252 145.085C38.2873 145.771 39.9458 144.942 40.9098 145.752C41.323 146.099 41.4724 146.655 41.8108 147.074C42.599 148.047 44.1154 148 45.3768 147.804C46.1006 147.69 46.9884 147.614 47.4279 148.177C47.6389 148.443 47.6989 148.808 47.9436 149.048C48.3831 149.482 49.1875 149.262 49.6167 148.816C49.892 148.498 50.1275 148.142 50.317 147.755C49.9361 147.883 49.5303 147.864 49.2592 147.593Z" fill="black"/>
<path opacity="0.1" d="M51.9283 145.809C51.8339 145.943 51.7464 146.084 51.666 146.229C52.2286 145.784 52.8249 145.369 53.2454 144.803C53.3545 144.657 53.4525 144.5 53.5384 144.336C52.9538 144.8 52.3444 145.226 51.9283 145.809Z" fill="black"/>
</g>
<path d="M81.5273 177.926L81.9669 224.479L84.0179 224.155L83.5784 177.926H81.5273Z" fill="#3F3D56"/>
<path d="M93.834 186.359L94.2735 232.913L96.3246 232.588L95.8851 186.359H93.834Z" fill="#3F3D56"/>
<path d="M132.151 209.875L132.142 208.982V208.45L132.064 200.261L131.943 187.46L131.922 186.355H129.871L129.881 187.42L129.946 194.276L129.974 197.244L129.997 199.648L130.035 203.804L130.059 206.255V206.514L130.089 209.736L130.116 212.576L130.283 212.372C130.551 212.04 130.814 211.702 131.071 211.36L132.151 209.875Z" fill="#3F3D56"/>
<path d="M91.5627 193.906L90.3906 195.846L91.5627 204.685L101.525 207.704H117.641L127.31 208.351L131.917 204.86L131.12 198.865L127.603 193.906H91.5627Z" fill="#6C63FF"/>
<path d="M90.3915 195.848L89.8055 201.236C89.8055 201.236 86.7289 211.801 111.488 211.153C136.248 210.506 131.999 208.351 131.999 208.351L131.853 202.099C131.853 202.099 132.716 205.058 120.132 204.657C107.549 204.256 95.8123 202.962 95.8123 202.962C95.8123 202.962 91.4171 203.823 90.3915 195.848Z" fill="#3F3D56"/>
<path d="M111.019 147.548C109.607 148.26 108.537 149.641 107.821 151.167C107.104 152.693 106.701 154.369 106.304 156.033C105.885 157.788 105.465 159.548 105.248 161.347C104.861 164.546 105.151 167.908 106.479 170.781C107.806 173.654 110.259 175.972 113.13 176.525C114.239 176.741 115.379 176.697 116.5 176.569C118.526 176.331 120.521 175.844 122.449 175.117C124.464 174.363 126.56 173.201 127.457 171.062C127.977 169.821 128.021 168.406 127.996 167.041C127.927 163.318 127.419 159.622 126.486 156.045C126.215 155.007 125.9 153.96 125.325 153.086C124.751 152.212 123.966 151.571 123.164 150.977C119.738 148.423 115.234 145.427 111.019 147.548Z" fill="#FBBEBE"/>
<path opacity="0.05" d="M111.019 147.548C109.607 148.26 108.537 149.641 107.821 151.167C107.104 152.693 106.701 154.369 106.304 156.033C105.885 157.788 105.465 159.548 105.248 161.347C104.861 164.546 105.151 167.908 106.479 170.781C107.806 173.654 110.259 175.972 113.13 176.525C114.239 176.741 115.379 176.697 116.5 176.569C118.526 176.331 120.521 175.844 122.449 175.117C124.464 174.363 126.56 173.201 127.457 171.062C127.977 169.821 128.021 168.406 127.996 167.041C127.927 163.318 127.419 159.622 126.486 156.045C126.215 155.007 125.9 153.96 125.325 153.086C124.751 152.212 123.966 151.571 123.164 150.977C119.738 148.423 115.234 145.427 111.019 147.548Z" fill="black"/>
<path d="M109.434 167.966C109.842 168.588 110.337 169.135 110.899 169.588C112.293 170.655 114.084 170.8 115.777 170.858C117.137 170.903 118.696 170.817 119.548 169.643C119.932 169.114 120.105 168.44 120.26 167.783C121.219 163.749 121.9 159.64 122.297 155.492L126.176 155.507C127.855 163.466 127.718 171.74 127.571 179.914L127.359 191.833L124.859 191.539C118.924 190.843 112.981 190.148 107.013 190.028C103.517 189.956 100.02 190.084 96.5352 190.41L101.978 172.493C102.684 170.164 103.398 167.804 103.563 165.356C103.802 161.805 102.902 158.057 104.149 154.772C104.249 154.508 104.375 154.233 104.602 154.096C104.829 153.958 105.116 153.992 105.377 154.029C105.869 154.102 107.374 154.029 107.731 154.378C108.259 154.884 107.91 154.96 107.724 155.776C107.391 157.236 107.076 158.587 107.081 160.109C107.085 162.871 107.859 165.787 109.434 167.966Z" fill="#6C63FF"/>
<path d="M132.151 209.879C132.804 208.919 133.42 207.925 133.998 206.896C133.705 206.202 133.383 205.524 133.126 204.815C132.734 203.728 132.508 202.577 132.285 201.433C132.209 201.044 132.134 200.655 132.058 200.265C131.238 196.03 130.467 191.735 130.308 187.441C130.293 187.084 130.284 186.728 130.28 186.371C130.28 186.319 130.28 186.269 130.28 186.208C130.28 185.818 130.28 185.427 130.28 185.037C130.297 184.064 130.353 183.083 130.454 182.106C130.473 181.915 130.495 181.723 130.519 181.532C130.519 181.49 130.527 181.449 130.533 181.407L140.496 181.005L141.334 180.971C141.909 180.948 142.519 180.912 142.994 180.551C143.792 179.944 143.886 178.7 143.873 177.631C143.824 174.929 143.548 172.238 143.046 169.594C142.668 167.605 142.129 165.573 140.919 164.045C139.926 162.789 138.487 161.876 137.97 160.314C137.778 159.733 137.73 159.096 137.481 158.541C137.232 157.986 136.82 157.579 136.432 157.151C135.065 155.652 133.932 153.913 133.077 152.006C132.483 150.682 131.84 149.222 131.065 148.307C131.027 148.26 130.989 148.217 130.949 148.174C130.29 147.453 129.536 147.136 128.642 147.628C128.481 147.717 128.328 147.822 128.185 147.942C127.866 148.212 127.575 148.519 127.316 148.857C126.413 150.006 125.621 151.257 124.953 152.588C124.483 153.525 124.079 154.501 123.746 155.508C123.482 156.303 123.264 157.115 123.094 157.941C122.968 158.552 122.868 159.17 122.789 159.79C122.496 162.119 122.496 164.494 122.537 166.852C122.581 169.02 122.667 171.191 122.845 173.35C122.888 173.873 122.937 174.394 122.991 174.916C123.098 175.946 123.231 176.974 123.39 177.998C123.453 178.389 123.517 178.779 123.589 179.169C123.606 179.273 123.625 179.376 123.644 179.479L123.653 179.522C123.847 180.427 123.997 181.343 124.103 182.265C124.115 182.381 124.124 182.496 124.129 182.611C124.154 183.141 124.15 183.672 124.118 184.202C124.084 184.828 124.031 185.453 124.005 186.079C124.005 186.189 124.005 186.298 123.995 186.403C123.987 186.719 123.995 187.036 123.995 187.352C124.024 188.109 124.106 188.862 124.238 189.605C124.485 190.987 124.912 192.323 125.505 193.569C125.561 193.686 125.618 193.801 125.675 193.915C126.418 195.385 127.355 196.732 128.043 198.236C128.635 199.589 129.078 201.017 129.361 202.488C129.459 202.973 129.552 203.46 129.64 203.947C129.776 204.726 129.897 205.511 130.022 206.296C130.034 206.374 130.047 206.458 130.06 206.53C130.226 207.571 130.4 208.608 130.624 209.625C130.754 210.217 130.901 210.801 131.072 211.375L132.151 209.879Z" fill="#464353"/>
<path d="M130.194 197.093C130.194 197.239 130.185 197.385 130.179 197.532C130.153 198.244 130.094 198.954 130.002 199.659C129.881 200.621 129.668 201.567 129.368 202.48C129.169 203.08 128.915 203.656 128.612 204.201C128.342 204.684 128.027 205.133 127.671 205.542C126.792 206.554 125.526 206.877 124.301 207.304C123.738 207.484 123.193 207.73 122.677 208.038C122.584 208.095 122.493 208.157 122.406 208.222L120.873 209.346C120.396 209.694 119.908 210.056 119.579 210.574C119.526 210.662 119.477 210.753 119.433 210.848C119.226 211.324 119.074 211.828 118.982 212.347C118.185 216.022 117.386 219.701 116.84 223.432C116.803 223.678 116.768 223.926 116.73 224.175L116.717 224.252C116.71 224.234 116.702 224.216 116.693 224.199C112.773 226.823 108.707 229.192 104.519 231.088L103.609 222.653C103.514 221.967 103.483 221.273 103.515 220.58C103.601 219.488 104.003 218.454 104.111 217.365C104.214 216.3 104.032 215.224 103.588 214.272C103.415 213.902 103.199 213.539 103.159 213.125C103.119 212.711 103.335 212.334 103.71 212.291C104.003 211.931 104.026 211.44 103.94 210.953C103.894 210.699 103.825 210.451 103.735 210.212C103.486 209.534 103.171 208.796 103.385 208.103C103.441 207.978 103.466 207.838 103.458 207.698C103.459 207.689 103.459 207.68 103.458 207.672C103.408 207.49 103.213 207.411 103.112 207.256C102.922 206.969 103.112 206.578 103.229 206.248C103.343 205.892 103.409 205.52 103.426 205.143C103.442 204.934 103.453 204.723 103.474 204.515C103.503 204.234 103.548 203.956 103.61 203.681C103.966 202.128 104.822 200.771 106.017 199.866C106.587 199.441 107.222 199.132 107.803 198.731C108.399 198.286 108.968 197.799 109.506 197.271C110.796 196.082 112.137 194.96 113.53 193.907C115.028 192.775 116.579 191.732 118.177 190.783C118.519 190.578 118.861 190.379 119.203 190.186C119.575 189.97 119.95 189.765 120.327 189.571C121.534 188.934 122.904 189.172 124.238 189.597C124.798 189.774 125.35 189.985 125.884 190.176C126.404 190.364 126.905 190.613 127.378 190.919C128.56 191.688 129.538 192.823 129.943 194.257C129.944 194.266 129.944 194.276 129.943 194.285C130.201 195.183 130.217 196.147 130.194 197.093Z" fill="#F86D70"/>
<path opacity="0.1" d="M130.194 197.093C130.194 197.239 130.185 197.385 130.179 197.532C130.153 198.244 130.094 198.954 130.002 199.659C129.881 200.621 129.668 201.567 129.368 202.48C129.169 203.08 128.915 203.656 128.612 204.201C128.342 204.684 128.027 205.133 127.671 205.542C126.792 206.554 125.526 206.877 124.301 207.304C123.738 207.484 123.193 207.73 122.677 208.038C122.584 208.095 122.493 208.157 122.406 208.222L120.873 209.346C120.396 209.694 119.908 210.056 119.579 210.574C119.526 210.662 119.477 210.753 119.433 210.848C119.226 211.324 119.074 211.828 118.982 212.347C118.185 216.022 117.386 219.701 116.84 223.432C116.803 223.678 116.768 223.926 116.73 224.175L116.717 224.252C116.71 224.234 116.702 224.216 116.693 224.199C112.773 226.823 108.707 229.192 104.519 231.088L103.609 222.653C103.514 221.967 103.483 221.273 103.515 220.58C103.601 219.488 104.003 218.454 104.111 217.365C104.214 216.3 104.032 215.224 103.588 214.272C103.415 213.902 103.199 213.539 103.159 213.125C103.119 212.711 103.335 212.334 103.71 212.291C104.003 211.931 104.026 211.44 103.94 210.953C103.894 210.699 103.825 210.451 103.735 210.212C103.486 209.534 103.171 208.796 103.385 208.103C103.441 207.978 103.466 207.838 103.458 207.698C103.459 207.689 103.459 207.68 103.458 207.672C103.408 207.49 103.213 207.411 103.112 207.256C102.922 206.969 103.112 206.578 103.229 206.248C103.343 205.892 103.409 205.52 103.426 205.143C103.442 204.934 103.453 204.723 103.474 204.515C103.503 204.234 103.548 203.956 103.61 203.681C103.966 202.128 104.822 200.771 106.017 199.866C106.587 199.441 107.222 199.132 107.803 198.731C108.399 198.286 108.968 197.799 109.506 197.271C110.796 196.082 112.137 194.96 113.53 193.907C115.028 192.775 116.579 191.732 118.177 190.783C118.519 190.578 118.861 190.379 119.203 190.186C119.575 189.97 119.95 189.765 120.327 189.571C121.534 188.934 122.904 189.172 124.238 189.597C124.798 189.774 125.35 189.985 125.884 190.176C126.404 190.364 126.905 190.613 127.378 190.919C128.56 191.688 129.538 192.823 129.943 194.257C129.944 194.266 129.944 194.276 129.943 194.285C130.201 195.183 130.217 196.147 130.194 197.093Z" fill="black"/>
<path d="M116.282 170.226C116.268 170.188 116.246 170.154 116.219 170.126C116.192 170.098 116.16 170.076 116.125 170.062C116.091 170.048 116.053 170.041 116.016 170.043C115.979 170.045 115.943 170.056 115.91 170.074C115.876 170.091 115.846 170.117 115.822 170.148C115.798 170.179 115.779 170.215 115.768 170.254C115.756 170.293 115.752 170.334 115.755 170.375C115.759 170.416 115.77 170.456 115.787 170.492L115.641 170.572L120.009 180.486L120.799 180.059L116.43 170.139L116.282 170.226Z" fill="#3F3D56"/>
<path d="M121.744 159.844C126.922 159.844 131.12 155.197 131.12 149.463C131.12 143.73 126.922 139.082 121.744 139.082C116.565 139.082 112.367 143.73 112.367 149.463C112.367 155.197 116.565 159.844 121.744 159.844Z" fill="#FBBEBE"/>
<path d="M134.12 143.037C134.076 142.212 133.965 141.392 133.788 140.589C133.238 137.966 132.231 135.384 130.498 133.501C130.391 133.04 130.263 132.586 130.115 132.14C130.113 132.129 130.109 132.118 130.105 132.107C129.588 130.535 128.841 129.068 127.893 127.765C127.344 127.009 126.632 126.263 125.755 126.234C125.509 126.224 125.249 126.271 125.023 126.146C124.857 126.027 124.717 125.869 124.614 125.682C124.18 125.075 123.605 124.611 122.95 124.34C122.295 124.068 121.586 124 120.899 124.143L120.808 124.164C120.757 124.175 120.705 124.188 120.661 124.203C120.617 124.218 120.538 124.242 120.477 124.263C120.544 124.386 120.61 124.511 120.675 124.638C120.848 124.98 121.01 125.331 121.158 125.689C121.281 125.987 121.395 126.291 121.499 126.599C119.999 126.789 118.777 127.968 117.661 129.09L115.033 131.731C115.028 131.735 115.023 131.74 115.019 131.746L114.943 131.827C114.924 131.848 114.905 131.869 114.888 131.892C114.88 131.898 114.874 131.906 114.869 131.914C114.847 131.94 114.826 131.968 114.806 131.995C114.769 132.046 114.736 132.101 114.707 132.158C114.693 132.182 114.68 132.207 114.669 132.234C114.665 132.242 114.662 132.25 114.659 132.258C114.649 132.28 114.641 132.303 114.634 132.326C114.633 132.329 114.633 132.333 114.634 132.336C114.63 132.349 114.627 132.363 114.624 132.377C114.594 132.491 114.603 132.613 114.649 132.72L116.382 132.742H116.586C116.594 132.998 116.602 133.256 116.61 133.512C116.335 133.74 116.071 133.984 115.819 134.242C115.545 134.524 115.287 134.825 115.047 135.144C113.484 137.235 112.668 139.935 112.586 142.654C112.586 142.738 112.586 142.816 112.586 142.904C112.586 143.152 112.586 143.4 112.586 143.647C112.586 143.809 112.599 143.971 112.611 144.133C112.612 144.345 112.662 144.552 112.757 144.735C112.77 144.756 112.784 144.775 112.798 144.793C112.886 144.899 112.992 144.985 113.109 145.047L113.235 145.115C113.298 145.149 113.358 145.181 113.417 145.218C113.969 145.564 114.296 146.231 114.798 146.659C114.827 146.683 114.857 146.707 114.886 146.729L114.952 146.777L114.993 146.806L115.049 146.842C115.085 146.867 115.123 146.889 115.162 146.909L115.232 146.948H115.244C115.302 146.977 115.361 147.004 115.421 147.029L115.504 147.061L115.529 147.071C115.553 147.079 115.578 147.089 115.603 147.095C115.652 147.111 115.701 147.126 115.749 147.139L115.896 147.175C115.953 147.186 116.011 147.197 116.07 147.205L116.156 147.218L116.244 147.228C116.384 147.242 116.525 147.25 116.666 147.253C117.111 147.249 117.554 147.215 117.995 147.15L121.734 146.664C122.582 146.555 123.448 146.446 124.285 146.638C124.994 146.8 125.647 147.173 126.336 147.437C126.491 147.497 126.646 147.553 126.803 147.6C126.86 147.617 126.919 147.637 126.977 147.653L127.058 147.676L127.245 147.726C127.313 147.744 127.38 147.762 127.448 147.776C127.543 147.799 127.637 147.819 127.732 147.838C127.796 147.853 127.862 147.864 127.928 147.877H127.941L128.129 147.909H128.174L128.313 147.931C128.381 147.942 128.448 147.952 128.517 147.96C128.667 147.98 128.816 147.998 128.965 148.013C129.207 148.039 129.45 148.059 129.698 148.075L129.941 148.091L130.184 148.104L130.917 148.14H130.949H131.052C131.356 148.163 131.662 148.146 131.963 148.088C132.016 148.077 132.067 148.064 132.118 148.047C132.17 148.031 132.212 148.015 132.265 147.995C132.814 147.762 133.216 147.225 133.494 146.651C133.553 146.529 133.607 146.407 133.657 146.283C133.706 146.158 133.752 146.031 133.793 145.905C133.844 145.742 133.888 145.588 133.926 145.426C133.938 145.382 133.948 145.338 133.957 145.293C133.966 145.248 133.986 145.158 133.998 145.09C134.035 144.904 134.062 144.716 134.083 144.526C134.083 144.466 134.096 144.404 134.102 144.344C134.115 144.182 134.125 144.031 134.131 143.872C134.131 143.752 134.131 143.63 134.131 143.509C134.13 143.377 134.12 143.204 134.12 143.037ZM130.363 133.353C130.244 133.23 130.123 133.111 130 132.999C130.137 133.095 130.259 133.214 130.362 133.353H130.363Z" fill="#464353"/>
<path d="M103.749 148.888C102.646 148.737 101.552 148.202 100.463 148.465C99.7819 148.627 99.1959 149.096 98.6509 149.577C96.6227 151.377 94.8981 153.56 93.5568 156.025C93.3294 156.394 93.1696 156.808 93.0865 157.245C93.0162 157.751 93.1408 158.265 93.2887 158.75C94.2908 162.028 96.4342 164.766 97.41 168.054C98.4355 171.512 98.0795 175.292 97.3235 178.834C96.3864 183.208 94.8635 187.401 92.8053 191.276C92.5258 191.852 92.1758 192.382 91.7651 192.852C91.2318 193.42 90.5154 193.826 90.1989 194.568C90.0524 194.893 90.0099 195.263 89.9059 195.61C89.6129 196.583 88.9038 197.417 88.8349 198.444C88.7837 199.227 89.1191 199.968 89.3228 200.714C89.6662 201.996 89.6298 203.366 89.2188 204.624C88.476 206.878 86.5333 208.929 87.0974 211.247C88.3558 210.846 89.7506 210.325 90.3439 209.032C90.5535 208.575 90.6575 208.03 91.0106 207.696C91.7152 207.032 92.9151 207.633 93.6638 207.023C94.2293 206.559 94.2498 205.608 93.9978 204.878C93.7458 204.148 93.3122 203.506 93.1188 202.755C92.7818 201.401 93.321 199.968 93.2213 198.568C93.1745 197.92 92.9942 197.298 92.9811 196.653C92.9562 195.399 93.5832 194.22 94.4168 193.368C95.2504 192.517 96.2804 191.952 97.2942 191.396L101.127 189.287C102.517 188.525 104.041 187.595 104.496 185.954C104.669 185.339 104.671 184.684 104.68 184.041C104.81 174.226 107.031 164.609 109.239 155.102C109.582 153.629 109.93 152.15 110.44 150.735C110.95 149.321 111.948 148.186 112.456 146.872C109.507 146.489 106.813 149.313 103.749 148.888Z" fill="#464353"/>
<path d="M124.876 210.467C125.214 212.738 125.421 215.057 125.582 217.365C122.945 219.785 120.106 221.891 117.221 223.844C117.057 223.956 116.891 224.066 116.726 224.168L116.713 224.246C116.706 224.228 116.698 224.21 116.689 224.193C116.465 223.657 116.074 223.23 115.587 222.989C114.506 220.475 113.426 217.961 112.347 215.446C111.761 214.089 111.175 212.718 110.882 211.253C110.882 211.223 110.868 211.19 110.864 211.159C110.641 210.024 110.59 208.845 110.442 207.695C110.367 207.036 110.233 206.387 110.042 205.758C109.866 205.198 109.625 204.655 109.411 204.108C109.147 203.433 108.926 202.751 108.916 202.022C108.916 201.79 108.929 201.536 108.826 201.341C108.717 201.173 108.581 201.028 108.426 200.913C108.233 200.723 108.086 200.482 108 200.212C107.914 199.942 107.891 199.652 107.934 199.37C107.055 199.42 106.56 200.467 106.207 201.354C105.886 202.222 105.464 203.04 104.953 203.787C104.58 204.321 104.106 204.758 103.564 205.067C103.515 205.093 103.467 205.119 103.417 205.141C102.194 205.738 100.765 205.528 99.4395 205.258C98.2806 205.023 97.0822 204.731 96.1504 203.933L96.0508 203.845C95.775 203.592 95.5289 203.301 95.3183 202.979C94.5374 201.798 94.1916 200.243 93.9997 198.762C93.9821 198.622 93.9645 198.483 93.9484 198.343C93.8152 197.297 93.7784 196.238 93.8385 195.184C93.8561 194.924 93.881 194.665 93.9118 194.407C93.9323 194.244 93.9543 194.069 93.9792 193.901C93.9785 193.896 93.9785 193.891 93.9792 193.886C94.0173 193.618 94.0583 193.349 94.0993 193.075C94.2458 192.155 94.3923 191.211 94.8319 190.42C95.1211 189.927 95.486 189.494 95.9101 189.141C96.0684 189.004 96.231 188.872 96.3951 188.746C96.6617 188.541 96.9357 188.347 97.2141 188.163C97.9144 187.699 98.6497 187.303 99.4117 186.979C99.5933 186.901 99.7779 186.828 99.9625 186.759C100.68 186.476 101.452 186.408 102.201 186.562C102.865 186.669 103.535 186.712 104.205 186.692C105.924 186.655 107.65 186.291 109.365 186.056C111.748 185.732 114.307 185.693 116.384 187.03C116.484 187.093 116.581 187.159 116.677 187.229C117.703 187.972 118.529 189.013 119.196 190.176C119.342 190.421 119.47 190.673 119.596 190.927C119.886 191.512 120.149 192.113 120.383 192.728C120.521 193.03 120.596 193.363 120.601 193.701C120.598 193.765 120.59 193.829 120.577 193.892C120.538 194.123 120.459 194.347 120.431 194.58C120.339 195.464 121.017 196.202 121.27 197.044C121.435 197.592 121.417 198.18 121.509 198.757C121.643 199.568 122.002 200.298 122.324 201.028C122.833 202.203 123.269 203.415 123.628 204.656C123.883 205.521 124.101 206.399 124.293 207.284C124.355 207.569 124.414 207.854 124.47 208.139C124.63 208.924 124.76 209.693 124.876 210.467Z" fill="#F86D70"/>
<path d="M140.497 186.445V187.58L140.308 187.577L140.097 187.574L137.742 187.541L131.937 187.457L130.308 187.434L129.886 187.428L127.441 187.394L123.995 187.343L116.684 187.238L103.998 187.056L99.4198 186.991L97.5826 186.965L95.8919 186.941L94.8385 186.925L93.8408 186.91L86.4437 186.805L84.3926 186.776L83.9457 186.769L83.6557 185.94L81.5474 179.921L81.1621 178.821L81.4551 177.523L82.7737 178.497L83.5853 178.609L96.9482 180.448L99.4564 180.794L104.775 181.527L109.984 182.244L112.027 182.524L124.112 184.188L127.489 184.654L130.284 185.038L140.223 186.407L140.497 186.445Z" fill="#3F3D56"/>
<path d="M81.4551 177.523L84.0922 185.147L140.497 186.445V178.172L81.4551 177.523Z" fill="#504F60"/>
<path d="M84.3848 185.957L84.8243 232.51L86.8754 232.186L86.4358 185.957H84.3848Z" fill="#3F3D56"/>
<path d="M140.307 187.573H140.097C139.755 190.475 139.19 193.34 138.407 196.136L137.741 187.539L137.713 187.172L140.177 186.857L140.259 186.848L140.307 187.573Z" fill="#3F3D56"/>
<path d="M132.291 182.066L110.828 182.553L104.162 180.12L122.036 178.984L132.291 182.066Z" fill="white"/>
<path d="M105.37 172.602C105.142 172.699 104.941 172.858 104.784 173.065C104.661 173.289 104.586 173.54 104.565 173.801L104.205 176.181C104.15 176.398 104.16 176.63 104.233 176.841C104.327 177.04 104.599 177.144 104.735 176.979C104.718 177.444 104.754 177.941 104.999 178.32C105.244 178.7 105.757 178.899 106.102 178.635C106.157 178.733 106.229 178.816 106.316 178.88C106.402 178.944 106.5 178.986 106.602 179.003C106.705 179.021 106.809 179.013 106.909 178.982C107.008 178.95 107.101 178.895 107.179 178.82C106.971 178.898 106.956 179.25 107.104 179.428C107.27 179.59 107.481 179.683 107.702 179.693C110.277 180.094 112.901 179.729 115.306 178.633C115.533 178.53 114.935 175.43 114.875 175.112C114.729 174.364 114.655 173.451 114.085 172.948C112.723 171.744 110.303 171.508 108.643 171.65C107.509 171.745 106.4 172.068 105.37 172.602Z" fill="#FBBEBE"/>
<path opacity="0.1" d="M127.208 172.965C121.909 173.077 116.5 173.173 111.442 171.416C111.926 173.489 111.892 175.668 111.346 177.721L136.123 179.992C137.173 180.087 141.529 180.633 142.553 180.358C143.577 180.084 133.96 176.577 134.349 175.492C135.417 172.503 138.994 170.751 136.417 170.639C133.165 170.496 130.485 172.897 127.208 172.965Z" fill="black"/>
<path d="M127.354 173.289C122.055 173.401 116.646 173.497 111.589 171.74C112.072 173.813 112.039 175.992 111.492 178.045L136.269 180.316C137.32 180.412 141.676 180.965 142.7 180.683C143.724 180.4 143.483 179.01 143.872 177.925C144.94 174.936 139.141 171.075 136.564 170.963C133.311 170.82 130.632 173.221 127.354 173.289Z" fill="#464353"/>
<path d="M118.927 173.739C119.155 173.836 119.357 173.995 119.513 174.201C119.636 174.425 119.711 174.677 119.733 174.938L120.094 177.317C120.148 177.535 120.138 177.766 120.066 177.978C119.972 178.177 119.698 178.281 119.563 178.116C119.579 178.581 119.544 179.077 119.3 179.457C119.055 179.837 118.542 180.036 118.195 179.772C118.141 179.869 118.068 179.953 117.982 180.017C117.895 180.08 117.797 180.122 117.695 180.14C117.593 180.157 117.488 180.15 117.388 180.118C117.289 180.087 117.196 180.032 117.118 179.957C117.326 180.034 117.342 180.386 117.194 180.565C117.028 180.727 116.816 180.82 116.595 180.829C114.021 181.231 111.397 180.865 108.993 179.77C108.766 179.666 109.362 176.566 109.423 176.249C109.57 175.501 109.643 174.588 110.213 174.085C111.574 172.881 113.996 172.644 115.656 172.787C116.789 172.882 117.898 173.205 118.927 173.739Z" fill="#FBBEBE"/>
<path d="M83.9136 168.575C83.4272 169.269 82.9394 169.978 82.6258 170.788C82.0266 172.332 82.1145 174.08 82.2141 175.758C82.242 176.244 82.2771 176.74 82.5072 177.144C82.706 177.45 82.9683 177.697 83.2719 177.866C84.5407 178.664 86.0263 178.903 87.4767 179.081C89.6977 179.354 91.9266 179.52 94.1632 179.579C99.7041 179.728 105.33 179.227 110.727 180.617C110.059 179.493 110.061 178.006 110.434 176.724C110.808 175.443 111.527 174.327 112.232 173.229C109.762 172.363 107.113 173.715 104.526 173.581C101.87 173.443 99.4111 171.743 96.752 171.745C96.1806 171.745 95.599 171.824 95.0438 171.672C94.4885 171.519 93.9508 171.055 93.8995 170.424C94.6086 170.601 95.2811 169.929 95.5741 169.193C95.8671 168.457 95.9199 167.625 96.2041 166.883C96.9117 165.039 98.8236 164.184 100.013 162.666C100.201 162.426 100.378 162.142 100.372 161.824C100.344 161.555 100.242 161.301 100.079 161.099C99.0903 159.639 97.6003 158.828 96.3623 157.693C95.9316 157.297 95.0628 155.805 94.5793 155.667C93.6827 155.412 92.9223 156.846 92.3392 157.545C89.3954 161.087 86.5869 164.763 83.9136 168.575Z" fill="#464353"/>
<path opacity="0.07" d="M113.373 168.16C113.744 168.465 114.074 168.827 114.353 169.236C114.492 169.441 114.591 169.675 114.644 169.925C114.696 170.175 114.702 170.434 114.659 170.686C114.614 170.216 114.709 169.742 114.929 169.337C115.149 168.932 115.483 168.618 115.88 168.442L113.373 168.16Z" fill="black"/>
<g opacity="0.1">
<path opacity="0.1" d="M121.499 125.625C121.327 125.118 121.128 124.622 120.904 124.141C120.76 124.171 120.617 124.212 120.477 124.262C120.728 124.725 120.954 125.203 121.155 125.695C121.268 125.662 121.382 125.639 121.499 125.625Z" fill="black"/>
<path opacity="0.1" d="M130 132.023C130.04 132.059 130.078 132.099 130.116 132.136C130.113 132.126 130.11 132.116 130.106 132.106C130.072 132.079 130.037 132.051 130 132.023Z" fill="black"/>
<path opacity="0.1" d="M116.381 132.736C116.458 132.669 116.528 132.599 116.61 132.534L116.587 131.764L115.022 131.746C114.768 132.004 114.499 132.374 114.648 132.719L116.381 132.736Z" fill="black"/>
<path opacity="0.1" d="M133.487 145.705C133.208 146.279 132.807 146.818 132.257 147.05C131.834 147.228 131.368 147.212 130.915 147.189C129.371 147.12 127.801 147.043 126.341 146.477C125.659 146.211 125.005 145.84 124.29 145.676C123.454 145.484 122.588 145.593 121.74 145.703L118.001 146.19C116.898 146.333 115.668 146.44 114.788 145.69C114.284 145.262 113.959 144.596 113.406 144.252C113.173 144.106 112.897 144.012 112.746 143.765C112.65 143.582 112.6 143.375 112.599 143.163C112.587 142.993 112.58 142.823 112.574 142.652C112.558 143.147 112.567 143.643 112.599 144.137C112.6 144.348 112.65 144.555 112.746 144.738C112.892 144.983 113.173 145.077 113.406 145.225C113.959 145.569 114.285 146.235 114.788 146.664C115.667 147.413 116.898 147.313 118.001 147.163L121.74 146.677C122.588 146.566 123.454 146.458 124.29 146.649C124.999 146.811 125.653 147.184 126.341 147.45C127.807 148.016 129.371 148.099 130.915 148.162C131.368 148.184 131.834 148.201 132.257 148.023C132.807 147.791 133.208 147.253 133.487 146.678C134.026 145.567 134.177 144.307 134.12 143.037C134.088 143.967 133.872 144.878 133.487 145.705Z" fill="black"/>
</g>
<path opacity="0.1" d="M121.455 126.668L123.506 128.777C123.506 128.777 121.748 127.966 121.455 126.668Z" fill="black"/>
<g clip-path="url(#clip0)">
<path d="M294.831 220.252C294.831 225.636 265.767 230.001 229.915 230.001C194.063 230.001 165 225.636 165 220.252C165 216.441 179.568 213.139 200.8 211.537C209.555 210.875 219.447 210.504 229.915 210.504C234.219 210.504 238.423 210.567 242.49 210.686C272.324 211.567 294.831 215.514 294.831 220.252Z" fill="#3F3D56"/>
<path opacity="0.1" d="M221.538 222.244C235.301 222.244 246.457 220.883 246.457 219.204C246.457 217.525 235.301 216.164 221.538 216.164C207.776 216.164 196.619 217.525 196.619 219.204C196.619 220.883 207.776 222.244 221.538 222.244Z" fill="black"/>
<path d="M221.435 221.404C234.446 221.404 244.993 210.141 244.993 196.247C244.993 182.353 234.446 171.09 221.435 171.09C208.424 171.09 197.877 182.353 197.877 196.247C197.877 210.141 208.424 221.404 221.435 221.404Z" fill="#3F3D56"/>
<path d="M228.869 211.133H214.211V224.55H228.869V211.133Z" fill="#6C63FF"/>
<path d="M248.029 214.383L247.191 218.995L252.636 219.834L256.196 217.737L255.986 214.383H248.029Z" fill="#575A89"/>
<path d="M220.598 127.801C220.598 127.801 220.179 132.623 219.132 132.833C218.085 133.042 221.436 141.428 221.436 141.428H226.462L230.44 140.38L228.556 135.768C228.556 135.768 226.043 132.414 227.927 129.688C229.812 126.963 220.598 127.801 220.598 127.801Z" fill="#A0616A"/>
<path opacity="0.1" d="M220.598 127.801C220.598 127.801 220.179 132.623 219.132 132.833C218.085 133.042 221.436 141.428 221.436 141.428H226.462L230.44 140.38L228.556 135.768C228.556 135.768 226.043 132.414 227.927 129.688C229.812 126.963 220.598 127.801 220.598 127.801Z" fill="black"/>
<path d="M210.128 164.698C210.128 164.698 204.683 175.18 209.081 177.276C213.478 179.373 214.525 179.163 214.525 179.792C214.525 180.421 213.688 180.211 214.107 181.26C214.525 182.308 213.269 186.501 214.525 189.016C215.782 191.532 215.363 193.419 215.363 193.419C215.363 193.419 215.363 193.629 215.782 194.467C216.201 195.306 216.41 195.935 216.201 196.354C215.991 196.773 214.735 199.499 215.991 200.128C217.248 200.756 223.739 201.176 224.367 200.128C224.996 199.079 223.739 198.45 224.367 197.821C224.996 197.193 225.414 196.983 224.996 196.564C224.577 196.144 224.158 190.903 224.158 190.903C224.158 190.903 225.205 184.824 224.786 183.985C224.367 183.146 223.739 182.308 224.158 181.679C224.577 181.05 224.996 181.26 225.205 180.421C225.414 179.583 225.833 177.696 225.833 177.696L228.137 177.486L233.581 178.534C233.581 178.534 239.654 185.243 246.355 187.339C246.355 187.339 248.239 189.226 248.868 189.226C249.496 189.226 249.496 189.226 249.286 189.645C249.077 190.065 248.449 190.065 248.868 190.484C249.286 190.903 249.915 190.274 249.496 190.903C249.077 191.532 248.658 191.532 249.077 191.951C249.496 192.371 248.868 194.677 248.868 194.886C248.868 195.096 246.983 214.803 247.611 215.222C248.239 215.641 257.034 216.899 257.663 215.222C258.291 213.545 257.244 211.448 257.244 211.448C257.244 211.448 260.385 186.291 259.547 184.614C258.71 182.937 255.778 175.39 240.073 170.568C240.073 170.568 235.675 169.729 235.675 169.1C235.675 168.472 235.256 164.488 234.419 164.279C233.581 164.069 228.765 163.859 228.765 163.859L222.692 165.746L214.316 164.279L210.128 164.698Z" fill="#2F2E41"/>
<path d="M217.456 199.918L216.409 203.692C216.409 203.692 215.571 209.771 216.618 211.239C217.441 212.391 218.909 213.803 221.632 214.05C222.396 214.121 223.16 213.928 223.799 213.504C224.438 213.08 224.913 212.451 225.146 211.72C225.177 211.632 225.197 211.541 225.204 211.448C225.204 211.029 224.576 205.998 224.576 205.998L223.529 200.757L223.319 199.289L217.456 199.918Z" fill="#2F2E41"/>
<path d="M248.028 217.944C248.028 217.944 246.981 216.896 246.772 217.944C246.562 218.992 245.725 223.395 247.191 223.604C248.656 223.814 262.686 225.911 264.152 225.072C265.618 224.233 268.34 222.976 266.665 222.347C264.99 221.718 260.174 219.831 260.174 219.831C260.174 219.831 257.451 216.267 257.033 216.057C256.614 215.848 254.31 216.267 253.263 217.106C252.216 217.944 248.028 217.944 248.028 217.944Z" fill="#2F2E41"/>
<path d="M225.622 132.201C229.208 132.201 232.114 129.291 232.114 125.702C232.114 122.113 229.208 119.203 225.622 119.203C222.037 119.203 219.131 122.113 219.131 125.702C219.131 129.291 222.037 132.201 225.622 132.201Z" fill="#A0616A"/>
<path d="M224.995 140.379L222.482 137.653L219.697 132.203C219.697 132.203 217.666 131.574 217.247 132.622C216.828 133.67 209.289 137.025 209.289 137.025C209.289 137.025 211.174 154.635 210.336 156.312C209.499 157.989 208.033 164.697 209.289 165.326C210.546 165.955 216.409 165.326 218.294 166.165C220.178 167.003 225.623 167.003 227.089 165.955C228.555 164.907 228.973 164.068 230.439 164.697C231.687 165.233 234.605 146.928 235.444 141.473C235.515 141.015 235.456 140.546 235.275 140.12C235.093 139.693 234.796 139.326 234.417 139.06C232.538 137.741 229.154 135.467 228.555 135.767C227.717 136.186 224.995 140.379 224.995 140.379Z" fill="#575A89"/>
<path d="M234 139.539C234.492 139.662 234.934 139.933 235.267 140.315C235.601 140.697 235.81 141.172 235.866 141.677L237.56 156.939C237.56 156.939 233.372 165.954 231.278 159.874C229.183 153.795 234 139.539 234 139.539Z" fill="#575A89"/>
<path d="M233.58 158.406L238.187 157.148C238.187 157.148 239.025 163.018 239.862 163.018C240.7 163.018 236.93 166.373 235.046 165.953C233.161 165.534 230.439 164.067 230.23 163.018C230.02 161.97 232.114 157.568 232.114 157.568L233.58 158.406Z" fill="#575A89"/>
<path d="M220.723 128.508C221.164 127.534 221.088 126.397 221.453 125.392C221.648 124.853 221.965 124.367 222.379 123.972C222.793 123.576 223.293 123.282 223.839 123.112C224.386 122.942 224.964 122.901 225.529 122.991C226.094 123.082 226.631 123.302 227.097 123.635C227.566 123.97 228.037 124.441 228.61 124.377C229.227 124.308 229.777 123.619 230.345 123.871C230.973 124.151 230.804 125.279 231.441 125.54C231.776 125.677 232.172 125.466 232.366 125.159C232.535 124.837 232.627 124.48 232.635 124.116C232.723 123.222 232.802 122.276 232.415 121.465C232.252 121.19 232.11 120.904 231.99 120.608C231.922 120.331 231.895 120.046 231.909 119.762C231.906 118.711 231.829 117.615 231.301 116.707C230.715 115.699 229.631 115.054 228.5 114.773C227.37 114.492 226.185 114.535 225.025 114.633C223.106 114.796 221.105 115.145 219.593 116.339C219.388 116.489 219.211 116.675 219.071 116.888C218.938 117.141 218.844 117.412 218.793 117.693C218.466 119.026 217.976 120.313 217.334 121.525C217.025 122.039 216.772 122.585 216.581 123.153C216.421 123.73 216.431 124.389 216.767 124.885C217.04 125.289 217.477 125.504 217.82 125.835C218.16 126.162 218.319 126.792 218.696 127.039C219.025 127.256 219.419 127.103 219.754 127.332C220.185 127.627 220.216 128.272 220.723 128.508Z" fill="#2F2E41"/>
<path d="M226.041 143.523L226.669 142.266C226.669 142.266 235.883 144.991 237.768 147.507C237.768 147.507 242.375 144.572 244.887 144.991L247.4 145.41L239.652 152.328L229.81 151.49L226.041 143.523Z" fill="#F2F2F2"/>
<path d="M225.623 142.266L217.037 154.215L229.392 160.295C229.392 160.295 230.547 160.924 231.435 160.295L239.653 156.521L247.401 145.41L239.653 149.393C239.653 149.393 238.815 147.716 237.14 148.555L225.623 142.266Z" fill="#6C63FF"/>
<path d="M238.815 163.439L240.49 159.037C240.49 159.037 244.259 154.215 242.165 151.909C240.071 149.603 237.768 158.617 237.768 158.617L238.815 163.439Z" fill="#A0616A"/>
<path d="M219.486 162.735L223.142 159.769C223.142 159.769 228.819 157.491 228.163 154.444C227.507 151.398 220.997 158.039 220.997 158.039L219.486 162.735Z" fill="#A0616A"/>
<path opacity="0.1" d="M210.439 141.534H210.23C210.23 141.534 206.984 137.655 206.356 142.896C205.728 148.137 203.634 165.538 209.078 166.167C214.523 166.796 218.397 163.546 218.397 163.546C218.397 163.546 222.375 157.466 220.91 157.466C220.2 157.466 218.271 157.148 216.512 157.257C214.635 157.373 212.949 157.903 213.057 157.362C213.266 156.313 216.303 143.001 210.439 141.534Z" fill="black"/>
<path d="M210.125 137.443L209.288 137.023C209.288 137.023 205.937 137.652 205.309 142.893C204.681 148.134 202.587 165.535 208.031 166.164C213.476 166.793 220.805 165.325 220.805 165.325C220.805 165.325 222.271 157.359 220.805 157.359C219.339 157.359 211.801 158.407 212.01 157.359C212.219 156.311 215.989 138.91 210.125 137.443Z" fill="#575A89"/>
<path d="M235.779 161.028L238.088 157.484L239.549 163.334L235.779 165.011V161.028Z" fill="#575A89"/>
<path d="M188.343 110.504C191.466 110.504 193.997 107.97 193.997 104.844C193.997 101.718 191.466 99.1836 188.343 99.1836C185.221 99.1836 182.689 101.718 182.689 104.844C182.689 107.97 185.221 110.504 188.343 110.504Z" fill="#F2F2F2"/>
<path d="M195.044 146.98H181.643V160.398H195.044V146.98Z" fill="#F2F2F2"/>
<path d="M242.897 87L246.289 92.8819L249.681 98.7639H242.897H236.113L239.505 92.8819L242.897 87Z" fill="#F2F2F2"/>
</g>
<path d="M147.286 44.3667C148.608 41.705 149.355 39.3867 148.956 39.1886C148.556 38.9905 147.161 40.9877 145.84 43.6493C144.518 46.311 143.771 48.6293 144.171 48.8274C144.57 49.0255 145.965 47.0284 147.286 44.3667Z" fill="#E0E0E0"/>
<path d="M214.317 77.6407C215.638 74.979 216.489 72.7122 216.218 72.5776C215.947 72.443 214.655 74.4916 213.334 77.1533C212.013 79.8149 211.161 82.0818 211.433 82.2164C211.704 82.351 212.995 80.3024 214.317 77.6407Z" fill="#E0E0E0"/>
<path d="M178.297 64.1842L175.807 62.1289L168.952 70.426L171.442 72.4813L178.297 64.1842Z" fill="#F55F44"/>
<path opacity="0.05" d="M172.57 73.1453L176.107 73.9766L178.572 63.5021L175.034 62.6708L172.57 73.1453Z" fill="black"/>
<path d="M172.963 73.2377L176.107 73.9766L178.572 63.5021L175.427 62.7633L172.963 73.2377Z" fill="#F55F44"/>
<path d="M149.075 38.9496L144.051 49.0703L211.318 82.4281L216.342 72.3074L149.075 38.9496Z" fill="url(#paint0_linear)"/>
<path d="M211.438 82.188C210.121 81.5568 143.206 48.352 144.17 48.8302C147.884 43.1646 148.956 39.1914 148.956 39.1914L216.223 72.5492C216.223 72.5492 213.86 76.6928 211.438 82.188Z" fill="#F5F5F5"/>
<path opacity="0.05" d="M183.916 56.5273L178.371 53.7773L173.586 63.4161L179.131 66.1661L183.916 56.5273Z" fill="black"/>
<path d="M183.674 56.4053L178.611 53.8945L173.826 63.5333L178.889 66.0441L183.674 56.4053Z" fill="#F55F44"/>
<path opacity="0.05" d="M182.711 55.9278L179.336 54.2539L174.551 63.8927L177.926 65.5666L182.711 55.9278Z" fill="black"/>
<path d="M182.469 55.8097L179.576 54.375L174.791 64.0138L177.684 65.4486L182.469 55.8097Z" fill="#F55F44"/>
<path d="M182.08 86.897C182.327 86.897 182.528 86.6962 182.528 86.4485C182.528 86.2008 182.327 86 182.08 86C181.832 86 181.631 86.2008 181.631 86.4485C181.631 86.6962 181.832 86.897 182.08 86.897Z" fill="#DBDBDB"/>
<g opacity="0.5">
<path opacity="0.5" d="M146.968 73.8906H146.508V76.4967H146.968V73.8906Z" fill="#47E6B1"/>
<path opacity="0.5" d="M148.041 75.4247V74.9648H145.434V75.4247H148.041Z" fill="#47E6B1"/>
</g>
<g opacity="0.5">
<path opacity="0.5" d="M262.927 41.3906H262.467V43.9967H262.927V41.3906Z" fill="#47E6B1"/>
<path opacity="0.5" d="M264 42.9247V42.4648H261.393V42.9247H264Z" fill="#47E6B1"/>
</g>
<g opacity="0.5">
<path opacity="0.5" d="M149.73 9.04297H149.27V11.6491H149.73V9.04297Z" fill="#47E6B1"/>
<path opacity="0.5" d="M150.803 10.5771V10.1172H148.195V10.5771H150.803Z" fill="#47E6B1"/>
</g>
<g opacity="0.5">
<path opacity="0.5" d="M249.122 5.05859H248.662V7.66469H249.122V5.05859Z" fill="#47E6B1"/>
<path opacity="0.5" d="M250.195 6.59271V6.13281H247.588V6.59271H250.195Z" fill="#47E6B1"/>
</g>
<path opacity="0.5" d="M143.886 38.8554C143.759 38.8002 143.657 38.7003 143.599 38.5748C143.542 38.4493 143.532 38.3068 143.572 38.1746C143.579 38.1543 143.583 38.1334 143.584 38.1121C143.588 38.0515 143.572 37.9914 143.539 37.9406C143.506 37.8897 143.457 37.851 143.4 37.83C143.343 37.809 143.281 37.8068 143.223 37.8239C143.164 37.8411 143.113 37.8765 143.077 37.9249C143.064 37.9421 143.054 37.9607 143.045 37.9804C142.99 38.1071 142.89 38.2091 142.765 38.267C142.639 38.3249 142.497 38.3346 142.364 38.2943C142.344 38.2877 142.323 38.2836 142.302 38.282C142.241 38.2783 142.181 38.2942 142.13 38.3274C142.079 38.3606 142.04 38.4093 142.019 38.4662C141.998 38.5231 141.996 38.5853 142.013 38.6436C142.031 38.7018 142.066 38.753 142.114 38.7895C142.132 38.8021 142.15 38.8126 142.17 38.8208C142.297 38.876 142.399 38.9758 142.457 39.1014C142.515 39.2269 142.524 39.3693 142.484 39.5016C142.477 39.5218 142.473 39.5428 142.472 39.564C142.468 39.6246 142.484 39.6848 142.517 39.7356C142.55 39.7864 142.599 39.8252 142.656 39.8462C142.713 39.8672 142.775 39.8693 142.833 39.8522C142.892 39.8351 142.943 39.7997 142.979 39.7512C142.992 39.7341 143.003 39.7154 143.011 39.6958C143.066 39.569 143.166 39.467 143.292 39.4091C143.417 39.3513 143.56 39.3416 143.692 39.3819C143.712 39.3884 143.733 39.3925 143.754 39.3942C143.815 39.3978 143.875 39.3819 143.926 39.3487C143.977 39.3156 144.016 39.2669 144.037 39.21C144.058 39.153 144.06 39.0908 144.043 39.0326C144.026 38.9744 143.99 38.9232 143.942 38.8867C143.925 38.8741 143.906 38.8636 143.886 38.8554Z" fill="#4D8AF0"/>
<path opacity="0.5" d="M170.267 8.65619C170.14 8.601 170.038 8.50112 169.98 8.37559C169.922 8.25005 169.913 8.10761 169.953 7.97539C169.96 7.95512 169.964 7.93415 169.965 7.91291C169.969 7.85233 169.953 7.79218 169.92 7.74135C169.887 7.69053 169.838 7.65174 169.781 7.63074C169.724 7.60973 169.662 7.60763 169.604 7.62473C169.545 7.64184 169.494 7.67724 169.458 7.7257C169.445 7.7429 169.434 7.76151 169.426 7.78117C169.371 7.90791 169.271 8.00992 169.146 8.0678C169.02 8.12568 168.877 8.13538 168.745 8.09505C168.725 8.08852 168.704 8.08441 168.683 8.0828C168.622 8.07911 168.562 8.09503 168.511 8.12821C168.46 8.16138 168.421 8.21004 168.4 8.26698C168.379 8.32392 168.377 8.38611 168.394 8.44435C168.411 8.50258 168.447 8.55375 168.495 8.59029C168.512 8.60285 168.531 8.61334 168.551 8.62155C168.678 8.67674 168.78 8.77662 168.838 8.90216C168.895 9.02769 168.905 9.17013 168.865 9.30235C168.858 9.32262 168.854 9.34359 168.853 9.36483C168.849 9.42541 168.865 9.48556 168.898 9.53639C168.931 9.58721 168.98 9.626 169.037 9.647C169.094 9.66801 169.156 9.67011 169.214 9.65301C169.273 9.6359 169.324 9.6005 169.36 9.55204C169.373 9.53484 169.383 9.51622 169.392 9.49657C169.447 9.36983 169.547 9.26781 169.672 9.20994C169.798 9.15206 169.941 9.14236 170.073 9.18269C170.093 9.18922 170.114 9.19333 170.135 9.19494C170.196 9.19863 170.256 9.18271 170.307 9.14953C170.358 9.11636 170.397 9.0677 170.418 9.01076C170.439 8.95381 170.441 8.89162 170.424 8.83339C170.407 8.77516 170.371 8.72399 170.323 8.68745C170.305 8.67489 170.287 8.6644 170.267 8.65619Z" fill="#4D8AF0"/>
<path opacity="0.5" d="M202.478 86.9921C202.351 86.9369 202.249 86.8371 202.191 86.7115C202.133 86.586 202.124 86.4435 202.164 86.3113C202.171 86.291 202.175 86.2701 202.176 86.2488C202.18 86.1883 202.164 86.1281 202.131 86.0773C202.098 86.0265 202.049 85.9877 201.992 85.9667C201.935 85.9457 201.873 85.9436 201.815 85.9607C201.756 85.9778 201.705 86.0132 201.668 86.0616C201.656 86.0788 201.645 86.0974 201.637 86.1171C201.582 86.2438 201.482 86.3459 201.356 86.4037C201.231 86.4616 201.088 86.4713 200.956 86.431C200.936 86.4245 200.915 86.4203 200.894 86.4187C200.833 86.415 200.773 86.431 200.722 86.4641C200.671 86.4973 200.632 86.546 200.611 86.6029C200.59 86.6599 200.588 86.7221 200.605 86.7803C200.622 86.8385 200.658 86.8897 200.706 86.9262C200.723 86.9388 200.742 86.9493 200.762 86.9575C200.889 87.0127 200.991 87.1125 201.049 87.2381C201.106 87.3636 201.116 87.5061 201.076 87.6383C201.069 87.6586 201.065 87.6795 201.064 87.7008C201.06 87.7613 201.076 87.8215 201.109 87.8723C201.142 87.9231 201.191 87.9619 201.248 87.9829C201.305 88.0039 201.367 88.006 201.425 87.9889C201.484 87.9718 201.535 87.9364 201.571 87.888C201.584 87.8708 201.594 87.8522 201.603 87.8325C201.658 87.7058 201.758 87.6037 201.883 87.5459C202.009 87.488 202.151 87.4783 202.284 87.5186C202.304 87.5251 202.325 87.5293 202.346 87.5309C202.407 87.5346 202.467 87.5186 202.518 87.4855C202.569 87.4523 202.608 87.4036 202.629 87.3467C202.65 87.2897 202.652 87.2276 202.635 87.1693C202.617 87.1111 202.582 87.0599 202.534 87.0234C202.516 87.0108 202.498 87.0003 202.478 86.9921Z" fill="#4D8AF0"/>
<path opacity="0.5" d="M258.479 68.9841C258.987 68.9841 259.399 68.5723 259.399 68.0643C259.399 67.5563 258.987 67.1445 258.479 67.1445C257.971 67.1445 257.559 67.5563 257.559 68.0643C257.559 68.5723 257.971 68.9841 258.479 68.9841Z" fill="#F55F44"/>
<path opacity="0.5" d="M238.231 74.8123C238.739 74.8123 239.151 74.4004 239.151 73.8925C239.151 73.3845 238.739 72.9727 238.231 72.9727C237.723 72.9727 237.311 73.3845 237.311 73.8925C237.311 74.4004 237.723 74.8123 238.231 74.8123Z" fill="#4D8AF0"/>
<path opacity="0.5" d="M157.858 83.8552C158.366 83.8552 158.778 83.4434 158.778 82.9354C158.778 82.4274 158.366 82.0156 157.858 82.0156C157.35 82.0156 156.938 82.4274 156.938 82.9354C156.938 83.4434 157.35 83.8552 157.858 83.8552Z" fill="#47E6B1"/>
<path opacity="0.5" d="M205.1 1.8396C205.608 1.8396 206.02 1.42779 206.02 0.9198C206.02 0.411808 205.608 0 205.1 0C204.592 0 204.18 0.411808 204.18 0.9198C204.18 1.42779 204.592 1.8396 205.1 1.8396Z" fill="#F55F44"/>
<path d="M173.427 54.804L169.746 60.3228C169.746 60.3228 170.973 65.9949 198.122 65.8416C225.271 65.6883 227.418 60.3228 227.418 60.3228L222.356 52.9644L206.865 42.3867L173.427 54.804Z" fill="#6C63FF"/>
<path opacity="0.15" d="M173.427 54.804L169.746 60.3228C169.746 60.3228 170.973 65.9949 198.122 65.8416C225.271 65.6883 227.418 60.3228 227.418 60.3228L222.356 52.9644L206.865 42.3867L173.427 54.804Z" fill="black"/>
<path d="M251.728 34.3405L203.413 55.6492L144.514 34.3405L198.505 9.8125L225.008 22.0259L225.957 22.4643L251.728 34.3405Z" fill="#6C63FF"/>
<path opacity="0.15" d="M251.728 34.3405L203.413 55.6492L144.514 34.3405L198.505 9.8125L225.008 22.0259L225.957 22.4643L251.728 34.3405Z" fill="black"/>
<path d="M226.957 39.446L226.037 39.5012L225.008 22.0234L225.957 22.4619L226.957 39.446Z" fill="#F5F5F5"/>
<path d="M174.041 34.2631L169.746 60.3241C169.746 60.3241 200.576 50.3596 227.418 60.3241L223.43 32.7301C223.43 32.7301 187.385 28.2844 174.041 34.2631Z" fill="#6C63FF"/>
<path d="M226.882 44.7648C229.338 44.7648 231.33 43.3921 231.33 41.6988C231.33 40.0055 229.338 38.6328 226.882 38.6328C224.425 38.6328 222.434 40.0055 222.434 41.6988C222.434 43.3921 224.425 44.7648 226.882 44.7648Z" fill="#F5F5F5"/>
<defs>
<linearGradient id="paint0_linear" x1="177.684" y1="65.7492" x2="182.704" y2="55.6263" gradientUnits="userSpaceOnUse">
<stop stop-color="#808080" stop-opacity="0.25"/>
<stop offset="0.53514" stop-color="#808080" stop-opacity="0.12"/>
<stop offset="1" stop-color="#808080" stop-opacity="0.1"/>
</linearGradient>
<clipPath id="clip0">
<rect width="137" height="143" fill="white" transform="translate(165 87)"/>
</clipPath>
</defs>
</svg>
