<svg width="14" height="14" viewBox="0 0 14 14" fill="none" xmlns="http://www.w3.org/2000/svg">
    <path fill-rule="evenodd" clip-rule="evenodd" d="M3.79961 3.80156V3.00156C3.79961 1.67608 4.87413 0.601562 6.19961 0.601562H7.79961C9.12509 0.601562 10.1996 1.67608 10.1996 3.00156V3.80156H11.7996C12.6833 3.80156 13.3996 4.51791 13.3996 5.40156V8.25817C11.4073 8.99735 9.25152 9.40152 6.99963 9.40152C4.74773 9.40152 2.5919 8.99734 0.599609 8.25816V5.40156C0.599609 4.51791 1.31595 3.80156 2.19961 3.80156H3.79961ZM5.39961 3.00156C5.39961 2.55973 5.75778 2.20156 6.19961 2.20156H7.79961C8.24144 2.20156 8.59961 2.55973 8.59961 3.00156V3.80156H5.39961V3.00156ZM6.19961 7.00156C6.19961 6.55973 6.55778 6.20156 6.99961 6.20156H7.00761C7.44944 6.20156 7.80761 6.55973 7.80761 7.00156C7.80761 7.44339 7.44944 7.80156 7.00761 7.80156H6.99961C6.55778 7.80156 6.19961 7.44339 6.19961 7.00156Z" fill="#4150D7"/>
    <path d="M0.599609 9.95537V11.8016C0.599609 12.6852 1.31595 13.4016 2.19961 13.4016H11.7996C12.6833 13.4016 13.3996 12.6852 13.3996 11.8016V9.95538C11.3894 10.6339 9.23673 11.0015 6.99963 11.0015C4.76251 11.0015 2.60984 10.6339 0.599609 9.95537Z" fill="#4150D7"/>
</svg>     